<mxfile host="Electron" agent="Mozilla/5.0 (Windows NT 10.0; Win64; x64) AppleWebKit/537.36 (KHTML, like Gecko) draw.io/26.1.1 Chrome/132.0.6834.210 Electron/34.3.3 Safari/537.36" version="26.1.1">
  <diagram name="Page-1" id="EpjrgA9EuSEvHy2jdJIs">
    <mxGraphModel dx="1900" dy="629" grid="1" gridSize="10" guides="1" tooltips="1" connect="1" arrows="1" fold="1" page="1" pageScale="1" pageWidth="850" pageHeight="1100" math="0" shadow="0">
      <root>
        <mxCell id="0" />
        <mxCell id="1" parent="0" />
        <mxCell id="q004lrZ0ON4sxlRlZ2fh-5" style="edgeStyle=orthogonalEdgeStyle;rounded=0;orthogonalLoop=1;jettySize=auto;html=1;exitX=0.5;exitY=1;exitDx=0;exitDy=0;" edge="1" parent="1" source="q004lrZ0ON4sxlRlZ2fh-1" target="q004lrZ0ON4sxlRlZ2fh-3">
          <mxGeometry relative="1" as="geometry">
            <Array as="points">
              <mxPoint x="270" y="130" />
              <mxPoint x="410" y="130" />
            </Array>
          </mxGeometry>
        </mxCell>
        <mxCell id="q004lrZ0ON4sxlRlZ2fh-6" style="edgeStyle=orthogonalEdgeStyle;rounded=0;orthogonalLoop=1;jettySize=auto;html=1;exitX=0.5;exitY=1;exitDx=0;exitDy=0;entryX=0.5;entryY=0;entryDx=0;entryDy=0;" edge="1" parent="1" source="q004lrZ0ON4sxlRlZ2fh-1" target="q004lrZ0ON4sxlRlZ2fh-2">
          <mxGeometry relative="1" as="geometry" />
        </mxCell>
        <mxCell id="q004lrZ0ON4sxlRlZ2fh-1" value="Terraform&amp;nbsp;" style="rounded=1;whiteSpace=wrap;html=1;" vertex="1" parent="1">
          <mxGeometry x="210" y="40" width="120" height="60" as="geometry" />
        </mxCell>
        <mxCell id="q004lrZ0ON4sxlRlZ2fh-2" value="implicit Dependency&amp;nbsp;" style="rounded=0;whiteSpace=wrap;html=1;" vertex="1" parent="1">
          <mxGeometry x="110" y="160" width="120" height="60" as="geometry" />
        </mxCell>
        <mxCell id="q004lrZ0ON4sxlRlZ2fh-11" style="edgeStyle=orthogonalEdgeStyle;rounded=0;orthogonalLoop=1;jettySize=auto;html=1;exitX=0.5;exitY=1;exitDx=0;exitDy=0;entryX=0.5;entryY=0;entryDx=0;entryDy=0;" edge="1" parent="1" source="q004lrZ0ON4sxlRlZ2fh-3" target="q004lrZ0ON4sxlRlZ2fh-10">
          <mxGeometry relative="1" as="geometry" />
        </mxCell>
        <mxCell id="q004lrZ0ON4sxlRlZ2fh-3" value="Expilicit&amp;nbsp; Dependency&amp;nbsp;" style="rounded=0;whiteSpace=wrap;html=1;" vertex="1" parent="1">
          <mxGeometry x="587.38" y="160" width="120" height="60" as="geometry" />
        </mxCell>
        <mxCell id="q004lrZ0ON4sxlRlZ2fh-8" value="" style="shape=image;verticalLabelPosition=bottom;labelBackgroundColor=default;verticalAlign=top;aspect=fixed;imageAspect=0;image=data:image/png,iVBORw0KGgoAAAANSUhEUgAAAykAAACwCAYAAAAL6yF8AAAAAXNSR0IArs4c6QAAAARnQU1BAACxjwv8YQUAAAAJcEhZcwAADsMAAA7DAcdvqGQAAEWxSURBVHhe7d0PeBXlnS/wX+/uRVogBIEQLoQEOWVbjEAWWgtF1MW4ZoOPF0UpWl1tm2V5Kutj7SrXhlt6oV7sH71d7ENpuq1b/7D8qa7PmsU2siqksO3KBhBplwYM/5aQBAgBFL3d631/7/vOzDvvzDln5pyT5CT5fp7nJJnJnJl33jNz5v3N+2c+Ulpa+iEBAAAAAADkif+ifwMAAAAAAOQFBCkAAAAAAJBXEKQAAAAAAEBeQZACAAAAAAB5BUEKAAAAAADkFQQpAAAAAACQVxCkAAAAAABAXkGQAgAAAAAAeQVBCgAAAAAA5BUEKQAAAAAAkFcQpAAAAAAAQF5BkAIAAAAAAHkFQQoAAAAAAOQVBCkAAAAAAJBXEKQAAAAAAEBeQZCSb+58lab/tIWmr35cTNTQqO+Lv8X0+DvVvwGgl+T03HycxvO6fvoqDRVTgx7cZ6y7L3D2fx+N+qyYdPLm+8/TILVAxmpWtlPLK0fEq52en6dnAgDAgIMgJa/V0aWz/LuLLh2RM6AnfPZ5+njGhU/om1TQ8PEHa/R0Ork9Nz841SZ/XzzdLH/HFzf9OXakjS7y77PH6AM5I0N/cY6+9hmind8upbKbRtOd2/R8AAAYcBCk5Bt9sc+8sAIA3SKn52YzXTovfp1vy65Q3228mqLwwMcJ0tro0i/ljJx4fFon0aECBCcAAIAgJd99cLpL/MxtQQAAspfTc1MHQO+dqlPTvUg1PVtG9MudqnYkil8eo/fEr+wCuP+kktH6TwAAGPA+Ulpa+qH+O7o/f5CmVV9OJ55aQZfmf48mlen51EKH7niSLugpSS7rLiAWqae9D/9CT3iGfstcj7jY7f4+NT9+UE9pc++hxP0zaIieDG7vRhq3qZo+ar130COr6JMzznjLxkm/oN5foKfC0xZlmdziO51fo/HD9KRwsemb9LsnvULO0NUtlJigJ3yaqfmeG/R+cjORRfRR671cUJlS0eYtx23Obyqi4+un0qUqc73muhxqnaP0VHAZY5unFon1JvR8oo5Xyuj48+IPbnK1pJzOrt9Kg5fwurr82z6/kw58+c7Yd6HtPDHzLHl+KW7aNJVH3mdORzfSntpH9IQQJ8/ksl4+hOdr8DN3+D97ezmVdx0ZFabTH2cOOz/Cl4uSNvv4CS4jP6sR1jEgj5nZ9F7gGLLy3zh2Ap+hJdm+9qRUx1ns9AeOM4c+3vj/n21T+aPzk3osD/6Tnt90nGa3F1PZly/T8wAAYKDKoialgMbdLwr4JIKOOx4Qr+/TifNlNOlv73E7TnLBXQUD/H9+1VNHWTVN+9aNeglFBSgcIDjLPUCtI++mUXP1AoJclwhQ3qv3ljnUIra3aZVvuejSp59oMo362++J4IOMfXiAjlK1b5ucfhUE6WWe2k0048uUeGSyXiL3hq5eRvR8Ge25R79eaaYhFV/zNc24UGv8X742UoeY3/GKXfiNqoDGLxGFPRKFJLm+b9Lx8wlKmJ1lZX8OFYA4220+KpbRHYRNnN7pN4nikV7uQFMXjbpJd8TVRtxZRZfW83YKxN/71LbFvtKwciowlotCBSFcGHPyo4xOjlzmbs/Nr/XqDjIHJc5y/PICFC5ot4jCIQdxzv9F3k4QAVeg43DEPJuyW//fWMaXZ7pwT6KArZfj/GKcTq8QyQV8sdxZZ3u8HIk0+PM1qijHmZcfJIIJb9kjJAINc5vy2PDvw5571hJVGXnBhWTr+FHpz7SPkMr/saed9YnPadhsmqI7qH/w5FRvvpjmQr2zXX7lR4Diz9cDp6vcvIiVfh2geMe1eo8M2pyA+PkbaE8GwT8AAECuZdXci2sLvFqRg9R1UBSaho3UBY4bafSMArHMM9SxXc4QfkEn6luIyq4xCvmTafBI8avlbV/B+cLDK4z3OesSgcTf6VnChYdF0MPBxnx/0BNV6vQLf15N44Z1yRoXLy2iYPD4k9703HuouEwUFOuNGpjtP6Wju7toyIzqQME8Vy7UWnefn98oCrai4J+43ioke4auFoXGo2I5ozYgLlkIcmsL6qirmfOsyN3m0KrZNEQUeo4YhaMLtVwYStBYu227WTgSPvj1fhEcFNDgUj1D/D3k7FZ3P4cME0GBu21zuShqaPAI8evobv9xZudjFHcuovHiuDi+3gz2HqHjMniaTUVWYTpdntEv76TfmTUwYpmOX3KzmQQVOuv67PU0Ypg4zsSyTgHygydF3ojfo6Z4I0INerCKRvFdcWN9Hzy5VgZ546vijxwV6Thz88O/7AdP3uCbdo4Nfw2Y2NdaZ1oEO59NyJoCs3Ct0i/2UwQ5yY7tlHzre4Q6j4pfI0oyW1cPGzSyQJwn+6nLl69TMzqHh04ReSvyv8197yPUxoFuBgE/AABAd8sqSHmv1d+c6YPHV9Bet0nVlbKJTucuq8nTO6dlQfSyiXpaBAeXTotfITUsLrmu4PY46DknYh4aWZxRgSNl+oWhV4ro4/zvqMsIUGyDZn2chlALnTOCJ/ZB6xnx83IanFEtTyacjqxJ3PkqJSaIguRWszAcn91mXt3JdQrrj1PhBFEob37NuhOrOgkPGWk1M7FHAuLC+j3+JlUdB4z0ZtXJWOcP13ZkOcyrLOyF9UV4frcMGj46xh+Mpc6zJJzRkhylRUYzRz+vH0ANFSREodYKxNx9z0nBPHicqcKvvyAdlOzYMOhALNivISSwi8F3DPUxst8L1/xkPbSvDtJD5Umft3mXqFwcvs170dQLAAC6seP8oOLLxU/VpGraJuPl61OiXHj4AfrNbnEx5kBFLxdsKtVF77+j/7SZtR85o2t4TremLBjLO53Ezc6s/TT74XQH2XRGjb7jvJL3p3icxt+UoItNa/13xXPtsyX0UfFLNuPypc3fp6G3cHMu2USKAxWdtoyHbE0RMAWCsQi4KZovz5bM9p8nugbDrE1QtSZddPbXThCUoMGcz8b+Oa9UfW1SSnuc6cJvuqFn9bERpWN48mWKaPAAu+MvA1pdQzfF+QwyCrJ17Zyvpu9xKuL+LIGgtofNu0j7+LkoS4jW3lRKN/xQzwcAgAGt24IUVZPATaW8vhzmy2y2xVQtBv+P+4aIgl6cPh3nT2dxhz0ZXcOTppZGjfDj70/jvfzNxHKGC45ciOUOtEb782ZuxhJCNvOymmB1C2eEH6tdvPvyNWnqHV4bfu73oQKqXD9bIu4IR6qvDDeXMvJK94vx6ADEKKyqvgpmEys9rK11XLivuH0NIh1nEWtp9LFh1zLFM0BHueN+ImbeZ1gbOGhMkfw96iYn4FTNP3v9vNw2hKaK4KRsPdEyEay8+hd6PgAADGjdFqQEm3VFdZA6vqgDlZG6NuLv3pZ9Twpn2UHLjTRcLHLx4L+kKHxNpoLJXNsRn2pq8XEqSNFkq+ebdYnCxqfLaQiPeBSl6ZbTzOv5OAVU3WwotiTNuvJSHXV8WQcqdnrTFKgvHOA70iHt+O+cYdVsRKGaQdFRr+9NGLeviREs7LnH7k+Ty2Zd0Y8zdZ6k69egj40Ufabol6/RWbGM2cdGSdaMzU+lN1N949jl2kAZqAQ+43TpV7UmgRsIeXDjwLVtMO0Xh1Ji2vt6BgAADGTdF6Rs/ym1togCR3W60bdupHG+EbWEuZ+hQtk2nTucsF9Qu+yI7h/xa+i3qkXBrYVa3aF+W+h9vlBP/oxeH4/O9WUal2FTow8e36E65t//oK8D/KBHHvTS8Xf1IqAKLtOd1NOpC2jEp51CtBpdKdikJ0ozL7vwqEeRyijPdJOSCYtyXjuRPZEXdrv+pH0gdJ5ULAr/TGXTqwIaf6e5PpXX6YKNILUtmjDD2xaPwmQ191KfefrmThe27qSLXNuSZb8bFvU4Ux34eRQt/whugx581Rjdy2tu5E+bWOdqJx+948ccyWvQg8tUx3wjWLIDo3RD8abn9FkSwWCaPO45nN/2qHg6qA00r0uX/r4RhAEAADiyeE5KGXXUB5tt2eznh0jnd9NvvvhT7yIbeP4Jj5YVXHdgXfZ6JPWsFOcZC/J5Ja3VIr1kPSclWvrDAp2wZ6DYz3mRkjwTJhfsQhkPK9o5RRQgjWdHpHruh/+ZHzxsrfdcCr7bqp5fIoo2TgdvY/jStCMLOc2E9KTCzZmcO/96e6mamuh1qGde6MCJh67lfYuTFlNIupKvw58nzL9sMJiT+ZZkyNfU6bS2xSNgieVL3f1Xs5N+noF8DKadxc4vIcpxpkTIDxb4DMzjQtP55gl7ZoyVH3LUsGNUJPabnP30HUNqMSbfF0g/i7gPPSr4WSZPU5r0h56XzPgMki7DQj6rnMJzUgAAwJNZkAIAPcrrtxJeoO/9wjTkNSf4CAS0TmATHgj2LAQpAADg6b7mXgCQI3oErbBhfu2higHC6CGsg8MxB4eU7j1/QMfa9Z8AADDgIUgByHu6IBnonF5Do+7kpjlxO+vDgKOD2cCgBHfywBrid28PQ6w1t3+MaFIXPT9PzwAAgAELzb2gz4raWTqTvhj5KLRPSuAJ7qkNtDwDQ5L+Jvn2WdesbKevfeZd8dfHaOe3R9Od29R8AAAYWBCkAAAAAABAXkFzLwAAAAAAyCsIUgAAAAAAIK/EDlImTpxIgwcP1lPZWbBgAY0aZT/NAQAAAAAABjLUpAAAAAAAQF5BkAIAAAAAAHkFQQoAAAAAAOQVBCkA0G/Nvb6aXvzKYnr2en42TAl9V/z94leqqXaM+n+Ye2/jZZz3QP5wPr85dK+Ycj7bF28rUf8GAIB+BUEKAAwQ5+hsl/p9/JScAVlRQUNvBXPbO87J3xfPqN8AANC/IEgBgH7LKcie6pDRSSRP/2wDLXhiA33+tejvgVwooNovparF0kFm11k6rGYAAEA/hiAFAAaILjp+ln+hkJtvVNOta4h+tY8u6nlptZ2Vy8YJQAEAoO/4SGlp6Yf670j4OSknT56kS5cu6TmZ4+ek7Nixgzo6OvScbK2hu7ctItoykRrG7aWaWc7duGZ6eV4lNekpqfI5WrZ8NhXqSS7AvLlmGm1t0JNLG2jFQqKX17TRHLkcr2MTFb/wKM0cLv7fvJFWLVmulhWKV5vbI+rc9Ritra3TUwCQr7iA/GBF8M794YYN9NBbekLj/iq3lOoJdqSRFvzsmJ5wcI1ANc0IqQy42FTv1dCMuZKevWsqDVFTwjF66YlGelpPua6aQy9WGv0uIm2zi3Y/V0+rjWZtaj/PiW3so/Hmsl376MkfvU3b9SSz99NMd7L8cvj2UQjkmcPZD96/q8+qNOg8IWsdAAAw8PTLIKWM/3SDiBqq4sCCdlLdrXdRK/+Pl3uhhBrcaaKK9e/Q/IQRqMggpYg6z7VR4627qVyst/CcuGgeeIo20/0iIGlzAx/1XiMQ0gEQIVAB6Ht0QfmUFaRw4fyWjnpvnhNk+IIGHSyQV/B3CvW+oCesMM7z5nTR540ARL2XjICD+4HMoSt82wzOC77PH1x4gUTwvSqo8AdM995WTeMb/UGP894xKQKKwLp0wGUHMi4EKQAAoPXP5l7nREDi1nLUUdMBcbEbXkRj9Ryi5fSMEaCwpi07qVMUMBLX1ug5TFzQD2xya2AKaT9tdoOOIiquFL9EQDInQdSyxaipabiLNu/qosJZd5AoJwBAJNfRyg31VF+f5LVhpVii92x/zQhQ2Km36dUj4ndpqRxtShpTQp8QXxuHf+XVTGx/bZ9sXnbFZKM2pGgEDaEu+i1/NznE+swAhYOAW0RQcbFphxEcHKOHGsQypVPdEcrmXj+VruBaGOO921/bQbu7CmjGnODIVxwseQHAMXqL92FEAc2V0wU0foT4deSIr0bn6Z/ZAUoUJXRVKQdE+7x1vbVPpItoyKQSvT0AAIBw/TJI6Tzwui8AiURc+Dv1n54uan7DqAlpPxZYb/G15bIp2P51eobWeqJN/NSBDABE8DqtXFxN1dVJXotXiiXyy+Ez1t1+GXyE841CJftTiCDirhTDIYsS/hV2IMP0e0cU8YQILiaJqMgKKvi7S/a/cYMPRxed5a8mgxwowG3upd9XOif7oX3HFFDSkZ7PdvmalwEAANgGbMd57kOyYts7xks3E4tp7GhuPpGg+b51idfChFoAAPoJNeSufDaHfgX6ZuiagiuuvtINDlRNR0ityRONdFgGKs761PM/HHNHcec38//6xU3M1CLCcI5DVFBhLiNeof1AIuCg5ckmkVZjnRkNM6xrmoZUTPX266qpsi/M4YNmjREAAEDQgAxSnE7uLVsm0qp5zmsjtej/x3GynQse3B/FXJfzMjriA0Aa+dzcS/fd4E7mT6ghivklC/M+OmgomEoP6gK+3TfEc4wectbFTbi4eZcRqKjhk7kDvLc986WanulheblPScgyXg1JPNy0Ta2jXjXPqqjOIFDRTcfkfungqbIkdEACAAAA2wAMUmqoYoq42J7bSQ1WE61MoFkXQK7kcXMv2fTK39ckjNs/xBcsROjP8ZYIMmSgMpzGO22kfM26kknWrCtXumj1j3SgcjnX7JhUgBScr8lak2CQhQAFAACiGIBBSh21totfw8upwgkseDSuDJt70bpN9Oa5Apq5vAGd5AH6K/1MDrPzO49cZTf3UrUfRqCRBI+09d2r9IR2r1y38TR83VzqisoU/VaEpxv30UWuucm2D4lUQt/9ktdUTdKDAQSf7O70X/E68ftECrIAAADC9cshiAutoX9V8y5vyGB3WGL3BiA319LDDDvv1UMQqyGJ9dDGelhjtT7yPVdFDUOs/nZZz1IBgD4gyRDE9vNKeBjdH9I1IlDhZ4+Yw/WmeS6IFlgu5HklzBw62BVYVjdH01MOs2lV2LDEoZyhlfUkS95EK/hMmEjPVDHTH7I9T/B5LwAAMDD0syAFACBLyYKUCFTgEVKwTvd8kH7ICVACAY4TlFhBGwAAgGnAju4FABBm7pQy+QwTe6je9HRH8a4W2m7f+dfNxQaSKy7nGpRj9JYd6J3qIlSMAABAOghSAGAAK6Da28w+GOoBinRkXwZNjHQfjYIymuvroyG2cTM3Zwp55kk/pp4hU0JX2X1vblPN0jAMMQAApILmXgAwsNl9IrJshhTaJyVJf5P+LrxPCo9+5vXhAQAACIMgBQAAAAAA8gqaewEAAAAAQF5BTQoA9FuDP/oxGlZQSIMuG6znAAAA5J8P3r9E57s66dJ77+o5kLOalOs/d572/eQsPX9zrJgHAKBbcIAycnQxAhQAAMh7fK3iaxZfu0DJUZDye1p28xkqKOii2Te/R4v0XACA3sI1KAAAAH0Jrl2e3AQpN1+iK52blSPfo5tm6r8BAHoJalAAAKCvwbXLk4Mg5UN6/NoLdJmeIrpAs2/+PZXoKQAAAADIldtp1tpt9IWfeK/bH7hd/w+g/8gqSJl99f+lH3yrnRZNfF/PUS4rP0X133qPvnr1hwhWAAAAIA98lar6fIGeA5S/pE8OPUqN982jH+vX5u9t1v/vJbO/Q7eLvK1arKcBciCjIOXahZ207+9P0PMP/wfdNOk9Pdf0eyqY1Eb3P3yUdvz0DL3wOXSmBwAAAMjK7Ktp/FCi83v+iQ7qWQPZ5G/o2qRvfFXPgf4kgyDl/9HNV5+igv/6ez2dxpDz9Mez36c/1pMAAAAAkLkLbb1cc9LbFv9EBieTfruVTupZ0P9k9JyUyZ/9DX17/ulogcr/HUpv/8PlVP33H9EzPLl/TkoNVb3wKM1s30irtpTQsuWzyRkjoXPXY7S2tk5PMb3scD1JXfTmmmm0tUFPOiqf862HqJlenldJTXrKUbH+HZqf0BOCvb3i1XupZlab9d41dPe2RVToLhsn/Uy9v0xPhactyjIRBfLC4eWdt5+bqNjM33M7qe7Wu6hVT7Lc5Jmapi0TqWEcL1+gFstwP2WaKJj/LWL9z6zTE5qdfmoW71uyXP0t86qcmtdspVHLOf9VHrUu1O8J5EcOPyeQxk24Qvx0mkaoeez8nh/4mkaMfOAlumW6sYDrAv2m7hbatZP/5mYiVTQ09L1nqPG++/RdTWO5tj+jL9w4Qc5lJ38xj7Zu0BOSWnasniLi5hvOephO+5mt9OOfF9PtNRU0TP/H3QduYlHzcTpet4MKa3hdKs2n/3QbzeFNX2iil5Z9lU6rt0UQJ/123pr55Qnk71GxP1//jp7w8B1RmWbN/pzk/y+39kfufwVdcNMWIc9MXNAx9jE0bVGWicpel8v57OOk3z5+gvkfKc/cY8g4bljsY8djf5aBPIu4TbkeCuZF8FhMvc3k57iSPm/tczPieSI/78v956Rkry9CnjkCx3wIvYyTX8Ht5e67ZaSdbouXHxHyTJ8fYeeqyh+9HzJtI2mv3Cf9WWVxXubqOIuaZ945lfw4O3H0sJo1wGXU3OuNLYU09XPjqPrhcfTSobDxnP+Aug6Noe88XEplnxsZGqB0q8QiWiELiBNp1Tzx2tJMhbMepbuX6v/LAqEOBvj/4lW3i2jm8r1UVakXYbpQTqJA7Cy3ak0bzVm/Ri/AeF2i4DlaFDrdZcRVQmxvhW+5GNKmX1jaQCu4UMsFY2e783ZTublNTr8u0DvLvNycoPnbGqhCLxJZIC8eozfP8T+4MG0Hd7yNRylxwFl2I7UMn001btpyn2dlovBfM2W/Xh+nTaThheeoWP8/Fpn/RdSo01a3q0us339scABVvkenXae/k99npT+xtIo61nB6CsTfe3UA1Ew0vJwqnPXl8nMCn8nf+DzRBq/d9o9/cZSGTf9LX5v009+7xfu/fP2AfnOBL9bPBgrcUfE2vnAjiQuOWudLey7Q2BtfolniFJL4YqYv2M52G49OoDk/+QlN1ou4JlTRF+SFT6dP74PZ9nv84muos47TPVT8/ZK64IrlaOjHabKzzRjSpl9eXHUhx12G6JM15jJO4ZDEhVqnnZc7c43Vbp3XJS7iXJjWy/y4ToTnnIZMm3BEyDMubHCBiAsiTtp+/Nsrfctw+lUh01lmK53kdWeSLl0A87an7wBzwcUqsKZNP6/LOn5U/mfaJ2CofK88bpy0Da2gWzLYT86zSb/V6eaX+CzPh+ZZxG3KvOACqVpf8FhMv03vHFd5zoVgd1nx8hWIY5yb6c8TZu8nn6difWu/QyP1EunzTJ0jslmTLkSPvVFPy5eXNnnM6iDGWZ9Kv50uId1xJqT7bjn4df1eTrNY3nc+iZddyE+ZZxv+SX73Dktc7eaN8lWaxIX8o2+r82TnV2mzfc5kKwfHmSPS93Gca8AAllXH+bcP/SE98PBoqjvoje3F3j9YJAKYwfTUIT2jx1kF53W7qUX8KhxXIyeLV1dRGS/j3PUWWmufkgXJmQuNQmaiiAqpi5rfMGowGu6itcb73HWZd8XFMptFwZYSVf6gJ7LU6Zc1LpUJ/517aTk9Y0xXLJxNhed20majdqJpiQgYRBAxZ7WzrmiKry0XedFMje666kT6RGFbrKvcDJ40rnnwakWW035edHSJDBq6Jc98NRM6bWYgEAvXeni1GK1v7KdOKqBRRq1Ja+00f82KSH+jzI4ZRmBRQIXtW93PsXB4m3HMeevL5efUt11HKzfUU319kteGlWKJeA5+3bqzn/Qi6Bn5wOfpk+LT/2frTl4sVsHz9L/+TlzAh1JhqZqe/KeioCGWMbdx8OtcgJpA0wKdevnumrEfG96WBa2hRc5yQ2nYmR3u/4cNPUON7h1Fb5uxpEn/yAeuobGcLuPO5envPSsvyp/8U++CPfLyoWJdv6ODxmfABUaz4OKuy7zDKAoh/ywKCTThmmDBKpI0eSYKCNNEoSdwp3TDfcb0V+nT04dawep3aCsXNjJI1+RPiA2KfP21u/7v0K95H0MDyVTpv11sW6zr6FZf4Vrlvyi8in1Ldmyn5LsTrdM24crYBSb78+XPcq/IstB1Rdom341OfiyyWNtMI9a5meY8ccigyN3PzXSwmT/3ke7nlD794rgzC8Zijj8YcNLgHLM/8K1Ppd9/bir59t3i5I11Tiy+UtVK/Nz7vsm9XB1n0fIs3jVg4MoqSHF885Vholjn+BjtfmUQHdNTyof0v1afpn2rP6Dr9Zxuda5NnmgeUXif5xSaa6hiSoEo4O+2mtLUUWu7+KUL0lJzmyycBmpYXHpdge2FF2wjS5l+ofI6SgwXgcAeM0CxraFyse3OA697gYB0iDrOiQLz6El6Opqxo51mVLYu6uDCuU9wXtOSibRKBhHdk2eB/dSfXWb5v5+afDVD0Zxs984Ch+8zCtnnXH9OfdvrtHJxNVVXJ3ktXimWyNZmOn1G/xlGFPD+RFzkT4qLTybNXFxnWv3vF+vbLAoT6gKn7gqeb/6VtY0j1Cmuz8Mut678F05by6kCi1lAPflb4+IdWD4DKdN/O01OiODDuavp0nl7ebFX+DrDBY4KusW4a+yn1xWS5mQFvkjS5NnIT32chokC2iGzwGHTBaPj/+rls3TkdAbpul0EbPrPgDN02g2CtFTpdzpOnzmi/+cIFn7j8B1Dwuk2+WHSyIyCRD95HISItE0ryI0q2TZTi3lupjxPPHb/ES7seoFFuIzSL4/Z4Pb4+DnEhWnj3JTy7rtF7Lc+78d/yiuoqwA/s+MgshweZ+nzLOZxNoDlJEihNwbTfqd81vUxeu0N/bfj2nfpv3/yAhV88jzd0+sPepxEo7ifBDfN2faO7+XrX8C41oSbKslAxVkupAlO+zGrgOnxaj9ySNfwBIMDQ2WJ7E/BzcT8+2n2w4muactOUeg37+zr2pwMC/Q9nmc5p5qsmXnr9YeJIcefE1hklbrZLEK3DQ51O81aXEHDjm4NFDJyanaxuASLCxE3e/Clzezfkc9KqZDTyc0cfOkP5q0sjMlmDiJQcZYLNPsR7IKLwburmzuqhid1gWtkEUcVqqmObz99bf2j2ky7dqp8+LTblEbd9Q4Ge9Ek7zidm8Aic0bTJP1K1R8kN3K0zV47N3OZZxeo045fHRkGsD1KBC1cO+HVdqsCfdY3jnKirx9nfU9ughT6A6r7+Uhq7xxG//bzj5HXaIXoykm/px/cdl4U89kFmn3Pe1QzTk70EnWHWjaV0u3/fS9fZ2amajHk/7gvgexvEb2vQOcJMzdyJEotQcMxsYzqjB7YR375molFIAMjszAtCtG0M9AZPhe6Jc9ySndy5yZmRp5y35XYcv059Wk5bu7FAQoXKLlJyX1e04hGvqMYQjbz4mcPuFXz3WRnq/gm1E1AjHS5r+7eftbU3T7ZVCcs/XZn6w33uf+TeR/ShjuV7hjFSNXwpC6wqbv63ATE2j/9ihvIqqDH7EuQXWff5EJqZnoMF+LEfskmPV5ecfv+7pPDbfbKudmDeZaLmpAecPC3HNDrJl+ydihNrWeP6OvHWd+UoyCF6LW/H0qf+uLldKvRSf5r3+CHOp6gm8Z5D3u8bFwbfe1vjtO/r/6glyL6kGZdUa2r1IFKERXL5l911HSA+1GY/RAUpw/HfmtEKJ+lM8gbzSkGXbAtm56qk3kumwsZfWDMAnRGAUrP5FmkdWVKp6GlIRcB2kBs1pVMbpt7qSY9EdsxO828fpG6CYafbqoUW1+v0g8264qKO9nKQMV9r26iFNJ3IEqTLLVMfCoAmUCTUnUyz6hZVzJeX4GsCyM7f0XHRZaN/YQd6CVrhucXNc+SNrG5+i/p/6xbSz9c94jYokU3N8r0rndGzXpibTPdudcL52aWeeYj+5T4m0opyZoX5ZAueOek5lP2HVT7IY+JDGsbPTNp2bf5mF1LtQv1rLhy+TmhWVdkOQtS+hLZdMk32lQ4HsHJN6KWUDGdqy/aqFU3cWqt3So7OM8311X5HN0+q4A6d23yOl+faBM/jU7mPDrXwlRVIakspwbZyXwRLfN1rF5Dd7vp0J3HA8tkIovALkS351nIunJK1mT5g0Qejjij5l45/ZzApAqi5gWbh90Ma+4VpZmXvqi4TRB4XZlWzeumPxOq+uyTrw/+vInOpx39ifPoJ1bwoQpLZvOu09/bIQpWE2iOuS4dNJoPrFO1H16HWh5pJ+MmMXoAhcBITIt/4o1sJAoj3OwkOFpTJnJZKPGOH/9IZFwT6A/KM84zkQ98noQVyD79x1eQGtNzPP2RXeCTgZ0/gOJR1LLdZkqxtqkD7KQDH/TCuZlNngWowQeGTf+8b/8mf6NK1kbsNfqa5J4+xqf/WezBCoLUzQtuDjVnQg46zF89kybp7JzwRwvUH3Hl9HPq+9eAntKtQco3vz5GDlP8yglv9K/3TxTRdx4WX261g7ovok/H6WsS0i/FDEp4BKf90/3/V8Pmms+v4OZg1rqWz6ZO3+hWwrpKPZStXkZ8ub/sDuMbH6fNGZrY3e62GbTfbB7ENT/O0L7uMvxKNhBAcnK0KQ7sfOtRLzuQSy/3eebLh7B15RIfP1yjZqR/TvtjmTX3Yjn8nMCw4T5ZFe+1+/1LKtwZbO6lCnfiD26G5GsfvM24gIiLyrKtaohUva7xzT9Q/S0ywU2g6sS3SKBNci4KxD1AFCQ3O8Px+tJvDoHLefY2TfL9Xw+56atB4M661rr0EKr+0atuEZ+d10fklsTv6CU9pGx8nDY+Fqw+J5942xeocs2PM7Svuwy/kg4EkIzY3gY9XKm5HvnK4DPn40cce+YwtOp5Pf7R7OLkmW9IWz3scljQ/ut/O0zvyr+O079vkX94+LiQo595+zntzA+SNomJus2UYm7z4NfV0LDmZ+orKPb0uRkz/enwZ24fs2p47zi1xJnQ35F8w0Fvl1+ZDYkt9kN2oBdCa9bMviEcgAlG/gW2+as36ZDOzqP//qL6I64cf059/hrQQzJ6mOPJkyfp0qVLek4EM9+lf/0f7TSahtJr/3sk3femmp37hzlC9zD6YFhNvNQDDZM8CLNHqLR5D3cEUNTDHAHygNk/yhegOTVyPBRsdxcik9BpS/lwwFzrjW1C36KPEdoTfLDjQICHOSo909zrzY/S1t8Mpa7fDKOf6gAF+hA9AlVwmFwKHXYXAAAMpSNlPxB7yF2++5xySGyAAcrpk9a9TdQg3/VQn5SP0P+sHUlTawfRa3oO9CG6o37hlOv8fVJ034+MhyEGABgIQtqzS7ofRvYdgwH6EXFecF+PeAOZQH/UM829kkBzr97FAwNE6ezNT49/Zp1u8qXnOXjo3N5tZpW+uZdqkqYnkurNJmvQHdDcS3OaGunJpLplONz+jTvOBgdisPEwxrfQLgr/HAJPve9paO4FecIc2KHXz4tehuZeCoIUAOiXRo/5bzTossF6CgAAIP998P4laj/1H3pqYBuQQxADQP93vosbKQIAAPQduHZ5EKQAQL906b136XR7q7wrBQAAkM/4WsXXLL52gYLmXgAAAAAAkFdQkwIAAAAAAHkFQQoAAAAAAOQVBCkAAAAAAJBX+l2fFPuZGOoZH3qiD3H2o/efQwIAAAD5o4aqXniUZg7XkwLKCllY2kArFhoFx+aNtGrJcj3Rh1Q+R8uWz6ZCaqaX51VSk57dl/W7mpSmJRNp1TzxWrNTPiU9v/CDB9+hZatr9DQAAAD0jP5wDXYCFC6I6vKOePV6gMIFZJG3dy/V033Jukqdj4/Rm+f0vDzCN61XvPAcFevpgQTNvfKUE2zhzggAAABIlddRYjjXnGzqF3fKsyUL8CI4WrF+jZ4zgDXcRWtlsNU/alEYghQAAACAPqTzxAC/gclNtERwUr5nI7XoWdD/9N/npOi2eZ1J+6Rwte8iKtNTRF305ppptLVBTxqKV++lmlkFeiqs7Wfq9qH2+23msnH61NjL2umS/6eNtGpLiW6nqPTVfjoA8aVvu538/DS/E9T3RWHoe9uM9r/Gcifu8LVzDp539neQ3Y5Yp709eA67+yC/58qpec1WGrWc16XS3LpQfzec20l1t95FreptEcRJv5234d+hgfxN0t470vfZaGt/At/zEfLMFKkterrPKQa3zbjNybs46bfTFcz/SHnmHkPGccNiHzsGO1/tPIu4zTjXMPv4MT/LONdgJd1nHvE8kflQ5D8npeAxlCr9PoFjPkTgOOu+75axdrotXn5EyDN93ISdqyp/9H7ItBVRo9wn/VnlpB+JkS9J1hX1+yzSd0uq8yTwGVrMc8VeNsW5mzb97ueew++DLAzMmhQ+MPTJ4rTnrNtFNHO53Z6SD9h3xAdK4uRUy/FrM91BVZV6EaFi/f1E67z/r9rSTIWzHnXbvbbWTtP/UxE/n4DusuJlnozR+tTwSSkOHr74OOsRy5PYZqDKM7GIVsiTWS1Xt6uLyhbu9aUfoL9Kd24y7/x0Xqpdcueup0JvWkTB21ixkMQFR60zcN7xhcD6Dnq5OUHztzVQhV7EJc9hvmjo9Ol9ML+rEkurqGMNp7tA/L1XF+yaiYaXU0UG53ra9MvvIH0xd5fh71D/d4u6IPq/P+vaq6zv2RjfZ1FFyDMu9HABgQtITtpW7ZnhT1uczykdXZAgd11O+3cumFjBXbr0R76GRVUg3yuPG7k+ca0aPptqMsl/3s/pu910qf0My7OI24xwDePjrHyPsz3x4usnv0+vK841OM5nnv48YfZ+6vww+hikS79zjshmTbowWiYKkHJavry08bp4GQ5inPWp9NvpEiKcJ+m+W+wyi+98Ei87kEqZZ+s2yXOicMp1Vv+LNVTOheXm3aoAL5s1+YO87ueUB/mmlLN/4njiPLT6i0T+bkl1nrhNt/jzE9McJLjLipcZMNjLhoqefueYndPunANZfB9kaQAGKeKDqhRHu4gezS+m1tqn5MlRJg4c98NaegfNHB68O9VaW+mbblpiXWCSnmi5Uby6isr4wmYdpJvFyU6JKuuLiNPvncytb+wXXyQFNMoM3gHywnW0ckM91dcneW1YKZaIJ5Nzs3j1/TSTdtJm605eLPKCkvy8q1goChpiGXMbTUu4AJWgOYFOvVYhdt1uWdAqHOcsV0CF7Vvd/xcOFxch985Yhud6mvS730HGHTj1HSoubgu9C9nY0QViXfupyfgMuMBoFlzifZ9FlSbPxPf8HLEv3l1ebV2lbzre55Ra8bXlonDZTI3uuupE+rhEkaDyQGCRKv0xrmFx+O6oLqcGmf8z4gdjXGDy3TFOsZ+Rtpn+GmYfU5yGRrnJ+OmP9ZmnOU8cMihy97OOmg6I/RxeRGP1nPTpX07POAXL0GDAScMaqpxVILdnrk+l339uKvn23eLkjXVzZekMVZOzxTyuephbHvTSLj8XGbDNpkrn2I743RLrPMmFqOl3+L5fltN+Ttrokm4p06Yy8IIUp9NZ+yE9wxH84qiYLo406wIbTR21tus/c66GKqbwhb+NTuo5jtAvyIzSD9AbXqeVi6upujrJa/FKsUS20pyb4gJzu7jIt4gLSFbV2u3H/O/nC5IoTKiLlLor2HngdWsbh6iDA6jRk/S0FjjXVYHFLKC27DEudiHfDbGlTL/+DnLuarp03hoXspPt/J06m2qSjkwT8/ssqjR55gQM+81CQ0DMzykNGbCF6qIOLgCYUqU/xjUsDt8xJLSeaBM/i6g4oyDR0twmC9a2SNvM8Bomj73YYn7mKc8Tj91/RNXsmIXFoIzSLwvzwe0lLWTm3XeLd94nrvUCwszLYrkj00Bt1GqnwQrson23JJHkPMmFqOl32OdmbxmwHeeTdzpzviBrqHi0+GWfUGFEwYaH3vOqXt9J2UYzJ1Kkyz7YAAasWOdmDVUtnU2FzRsDhYycqiyRzTVkswdf2h719Z3JX5NoFKeTmwn40h/MW1kY03fqapzlwpoM9PD3marhSVPgyvHn1LSF74Cbd+N1jUiGha/017DeI5u7mHmWqm19ThjNofQrVR+UpHrt3MxR+qWQoNeRYQDbo0TQwrVIXm23ChyzvnGUCym+M5wANtJ3i9bj50mE9OcbjO4V4ESawbuCobgQxAcWV1vP86pfk7cL7H4DftQP6KNy3Nwr5rkpm3nxswd8VfDdoOGYvFtmt4t3X929/aypu8qyqU5Y+u3Ole4zCHTe+9rap9cd32eqhidNgS3Xn1OiyCoAi4Iv7eyGzqghd0t7kOrgzM1KjLzSTZS6BxfwF1GZbEbkbZP7OsTWK+dmDtOfTi5qQnpA0x7xReE0+ZK1QxnWTPQgp2Yz0neL0PPnSWrBmtn8MPCClIbXqZnb7U63L5LBJgzqYEvd8VRV7UVtK5lZMwE/XaUf0tY2q2pGgF6X2+Zesc5Np5nXltRNMPz0d0Zsufge6E0Rb+CE4E62MlBx35vd95laJj7VrChd2+9cfk5ePxK3QMKvTAKUGNewMFHzLGkTmz9ZSZvkjYO/oS/qWR6ng7PXjyGOjJr16CZO0e60p/tMe+HcjJX+NGTTHX9TKSVZM7Yc0gFeTmo+Zd9BtR/ymEhzTKfn3QD7mwyT5wucTLq/TPMb6mZKtO+WeOdJ1MAnlajpzzcDsCZFd05KLPKNtKDuovoLNK21W1Vns+X+UT2KVze4nTnVAWl+KYiL0QvJmpToi3vGnUEVla4EzTfvRupCFh7wBKBEPzejNPPShRe3CQKvK9MmIN53UF998rVsupR2tBfOI3tEJH1xNpp3Rf0+s28aBYbSjEMPoBAYiWlpg3FdyOXnlHlgFxT9GpZxnol84PMkrOB83ZwpNET+NYmmBbJFnSe+oJNHIovSjCXFNlPS7fjNoI3vUofvZ7prcC+cm7HSn44afKBw1v2+/atYz0MIm4M2dAf9HTnrjsANh/jUzQuudZS1Ddl2mP+T68i5nzRpajC0jkQHTjOXmv3r1tDdPISwGWxE+m6Jd544gU/cwTp8oqY/z/Sz56ToalM95cejWBh3SfmASDY+tU+wMMJVwWbHMvuLn0d12D9dFIbs8emlVOuLkf6QZe3RJGR1YtrnCgD0X1HOzVQFN/+57j/n5P/keP88nKZzbupl+I55uqYhTnM0PamIC7I7mqD+rkjVJMh3PlvL6++4wCgzKcVIf5LvK//2gsvY359KcLmwdKsmEnqCm8fceowqxfvIXTZCnhl862Nh+532c4oqPL+Yt68x0h/xGpY2z+LuH9ekPPQpEagcoheq/4r+Vs/2WPvJ2xTbud287kTcZuRrmJUXfIxtpvvFeW0+w8iR6hqspU2f3sd050nUczBO+sP23xL4TpOfu3k8ddd3S6rzOGKeOZzPIJB2lvxcYsF0cU3KX9OnRJYc+odq+ivr6yfwPWDwryvCsaOl/26JcJ4YUn2m0a9h0Y99Ow2h52IP6L8PcwQAAMgLukASUuBShZlMgp4ciVDozbne2Cb0LfoY4ecKhQUBMDCg4zwAAEB30qNGhfUJkE2yAMDH6ZPWvU3UIN8hSAEAAOhOTqdi+yGilarvTW8/AwIgryxtkM2X4g1kAv0RmnsBAPRnutmEv319iKhtxcGVqi27x2nKFd6OPlmb9h6D5l6QJ8y+FWn78cCAgCAFAAAAAADyCpp7AQAAAABAXkGQAgAAAAAAeQVBCgAAAAAA5BUEKQAAAAAAkFcQpAAAAAAAQF5BkAIAAAAAAHkFQQrEw+Pbb3uHVmxroAo9CyBfzb2+ml78ymJ69noee7+Eviv+fvEr1VQ7Rv2/L7r3NrEPX7qS5urp7ldAtV8S27ytRE8zPc/Jy6vmyHzu2XQBAEB/hiClD+MHia144Tn/E4wzxA9RQuAB/ds5Otulfh8/JWfEpoKeOXSvngat7Sxd5N8ig7fLGQAAANlBkALxNNxFa+dNpFXzKqlJzwLIV9s7zsnfpzpkdJLcmCvpWVnL4rz6dm1L9+ui42f5d+YBHwAAQCoIUgBggNAF666zdFjNULip0l1TiZrqacETG/RrB9HNqDGJ7FQXcaxy8YwKCgEAALL1kdLS0g/135FMnDiRTp48SZcuXdJzMrdgwQLasWMHdXR06Dm5wc2g5if0BGveSKuWLNcThqUNtGKhsWCS5bgpVM0sbtOudO56jNbW1ukpxd6mvYxaRxu97KuBWEN3b1tEhe6yapq2TKSGceY2m733cZ+Q5bOpUM4PcW4n1d16F7XqydTU9sr0VFCK7abcjr1eYz2Ssd8n7vB9Bi1i359ZpycAuh33raimGbSPnvzR20maKnFfljl0hZ4KOkYvPdFIT+spd53eVwZdFAHQ51/zanO4X8kt1EgLGgvoWREgDdHzDzdsoIfe0hMaNzF7sMJYGeuy0ss1QcZ6OCDb/Vw9rTZqOdR6zom07qPxZvrsdQkyfaV6wnFEpPdnx/QEAABA9+p3QQoHA5UnpnkFXadwbQUgTlDhKxSLoOVuqjQKyTVU9cKjNHN4F725ZhptbVBzi1c3UMUblXpaF8jNQnvINuMEKbJw775Xp4GCQYHch9FxgpLkwtMXLuV29b6TEaSpvDYDFTOI8earNJAvrwG6lxNQ2IFGOK+gn3zZe2+rpvGNRoDANTWVJb5AxQsCvO2qdZMvuFDL+dMm540wAwsRRH2pgF4yAg31Pn+gYgY7Xlp0AOYGIGFBm553FkEKAAD0nH7X3Ku11ghQWMNd1NgsfidmeJ3CRUF6jh2gsHVmgCIsvSMQoLDWWidA4YJ1lShsi4K2WWAX29y8SxQAElVUVannxcEBjxtQ1VHTAbGu4UU0Vs/JZxULRXAm0r/ZqEVqWrKRWihBc1bX6Dka76cRFLW+sZ86RYFolFEjBQPJdbRyQz3V1yd5bVgplsi1Llr9Ky54l9At3BfFN4JVZp7+mb8Gg97aR7vFKTxkUok18hUHEV7wsf1AC10Ux/+IIj1jzJV0gwhkDjekC56O0UNWTcjTjfvkuj4xxaqBEbi2xqvVOUZvHRG/RhSotF01VQRsIl3/6F8fAABATxsQfVJOtjsXZKX42nIqFIHFfjMgCVExXZSWz+2npqR39WuoggsB59ropJ7jyKbA3Xng9axrRnrHGioX+xtM/yHi/suFoyfpaa39mH853SnfFyjCAPI6rVxcTdXVSV6LV4olusFbjbTgiXoZSFCpHko3pyN4OZ3MLV0ttN0MZixzp5TREA4irOZfkeg+IkFddLZN/6k9/bMNtEAHOfdOFkFamnQBAAD0hH4YpHBTIn6Oh/cy+5OwsaPDAwu/GioeLX7ZBekwKZYpHGfVHvRnlSWyz0rhrEd9+b9iGzeZU4sA5KcuWv0j3Wm+watZ+e5V6r+xBEYKC+nfkWPclMvcHgdZyfvQAAAA5L9+FqQY/UPkMLnqVcdNrwyyZiVt86k6am0Xv0aXZPUcks4TXrOnfk8U7jrFLx40wMl73ytkUAIAT2809woha1Ya5QhgV1wd8+GETgd27uPhjhS2gV7iJlXdxOlrws24vG2q9AMAAPRV/StIWTpDdsZuaUjdkbz1BLd3SFD5UjWdjApmyqkiab8S3V/E7O+iRWpSptObqWjBVjQqT4qoOJM+NK4kzboAIuml5l4xqOeuDKfxSZ6hoppoddHuxuw7mIduS/dT8RTQ3EkFxCN0vZRJszDL4TPiO6VghL8WRvZT0X8DAAD0kP4VpDS3yTv5ZdPXqGmBR5aym3vRuk30prj+ly3c6+/YzqN7GYFLa+1WahGFgJnL/U9i59G9nPepZRI0f723Te6Yf7vYZueuTV6ncDswsoc/zoCzzkCH9EzIvBP7utDYj9jqaGtDs0jSIlqWizQBdDseGStYWzL3+qmyoH74V1YHcvlk9QKaMSe8g70KLMwO6zwyVobNvd46Qod92xJp5ee5dIlAwqX7uxSU0VwnmJHNzTJr7qU675fQDdfr9PO6KofTRXOTAAAAPaD/PSfFKvxz06PNdH/o8LrOMMSu0OekOMMQ60kh+JwUc0hdJex5H2qIXafwwkPvbqJise7EAf8QxN6QxEqq4YH96xTMoZDjCgRO9vDAVrCnBfLDGYJZTyrmKGk6v5I8lwagRzlNtPSkkmJIYj2ksMe/rDnUL+NmWG9N9g8bHBxGWNDpOGU+K8WXNjWk8PYpYv2TWoJDBLub5PQcoatEoDLGGPY4bIjjUL79U/tGnF5+rguGIAYAgB7SLx/mCAAAAAAAfdeAGIIYAAAAAAD6DgQpAAAAAACQV9Dcqz8K7RMSAn1CAAAAACAPIUgBAAAAAIC8guZeAAAAAACQVxCkAAAAAABAXkGQAgAAAAAAeQVBCgAAAAAA5BUEKQAAAAAAkFcQpAAAAAAAQF5BkAK9oIaqXniHVmxzXnupqlL/Kww/90Uu10AVela+qFiv9mHZ6ho9B/LJ3Our6cWvLKZnry8QUyX0XfH3i1+pptox6v+9x0nLHLpXTDnpfPG2EvVvAACAAQ5BSh8mC8gvPEfFerrvqKOtt06kVfPEa0uznpdHdFB091I93eesobsROIU4R2e71O/jp+SMvLG945z8ffGM+g0AADDQIUiB/NdwF63lgGZeJTXpWfmiaYkKttbW1uk5kE+cwv+pDhmdpOTWZrgvVcuhODUf1iu05qOAar/kX07V5Jh0wNR1lg6rGQAAAGBAkAIAA0QXHT/Lv+zAQAUgD1YQ7X5uAy14wnkdoau+dCXN1Uuxi0313v8bjhGVzrECFV5XNc2gffSku54N9EO6hr57lV4kTNtZuih+RQmmAAAABoKPlJaWfqj/jmTixIl08uRJunTpkp6TuQULFtCOHTuoo6NDz8kNbgY1P6EnWPNGWrVkuZ4wLG2gFQuNBZMsV7x6L9XM8u6Edu56LHDn3N6mvYxaRxu97KsN4GY5i6jQXVZN05aJ1DDO3Gaz9z5uirR8NhXK+SHO7aS6W++iVj2ZHvcPeZRmtot931LiW3dwP/Wyw/WkKPS9uWYabW3Qk4LMBwquq0Xs0zPr9IRJfgZFgfVI9r6m3Lf0aQsu49/HwHFjMffBXjbp/unPtExP5STPkrCPU5vaV9J5YBxTDp3f5OSJnC6nZpHe1oXG/oZ+DvZ+hqw/T91722K6pfQYvfREIz2t5wVx8DGHxogg5fOvOYEE15iIgKTAey/Xxqhgp55W51mTMgAAgL6k39WkcEGtfI/u78CvNTupM7GIVqxfo5dQuGDIAQoXBN1l98yw+iGoDt41s0gULL3lNtMdRkdv1f5//mhRcHPWI7ZJsx4NbDOqMlEgrBm9VW/vMXrzXILmO31P3KZPE+ll7s7BBUZnu/yKFaAYOI9kgVSvZ0szFYp98PKD91MHM3pbdbuIZi4P6fRuratuV5fYpzSd48PY+5qM7EMi0kZmXjxFtNDfX6di/f1E65z/i5feR6fvhtN0Sx4zYtp3bIiXGTDYy4biAEwHoc46VJ6F9HeReVZEje5y8fOstXaa3s5GahHTHJQ42+WXCsbqRIDEmZmgcisNxdeWiwCpi5rfMAPTApleGUQ56x4+m2rMY1vmv38/X24Wx2weDnQQMOZKuqGUa0j2pQhQ0gjUzBTQiCL9JwAAAGSk3wUpXFDz3X0WBd1GWSab4RWYRKFqTiLkTvW6Sv/00jto5vDgne/W2kp3unh1FZXxXWMzOBDb3CwKmZSoil8wZxx4uDU6ddR0QKxreBGN1XO6B9/5NvZz3W5Z0C0cpwrw7n4aNU2ttU+JAEoUYhfawZg/z1prt4p1FVDi2u7pyF2xcDYVBu7ui8L4En/A1rTEqllZt0mkX+zjlOu6YfABEeBWioOseaOvNkrlmQhExTHo3ybnmVfz0PrGfhH8FNCoFDU7GdOfbdl083OroYopBSK9W/15xHw1jMupQR7b3vnk5P9mYz+blnCglKA5sTrvX0crN9RTfX2S14aVYokcKxpBQ8SvTJpZzb3+GpohsuzioWO0Xc/b/to+GbBcUcl9Ucw+LQAAABDHgOiTcrLdXwBRd4ybaX+apjQV00UJ8dx+arILbS5dsDvXRif1HEc2hczOA69nVhuSjcA+LKdn3LvvTgF2t9V8p45a28Wv0SX+Ancgzw4R918uHD1JT+fSGioXeZxZnun0d4fK6ygxXKSr/ZCe4UgSdKY8znJtOe0PBO4qvS17gs0d7XmtJ9rEzyIqlgF4svzP5DN/nVYurqbq6iSvxSvFErk1d5TR9k+yOshbfVKGVHid650+LF7zL3aMHnpiAz3ZxPNK6Ba9bMr+KAAAABDQD4MU1fzKewYHN9fyt9MfOzo8sPCroeLR4lf7sfSF3xTLODURfdskkmU5bpJk5W2qPhw9orJE9uHoPGE2UUpCNkvq2fQnT5dTyO8dTVu4mZrX5EsG7ud2UkOawD1A5z83mzPzdQU3v7PL/3nIGf3Lo4IM7uz+0hE9y+B2nOdO81RAM+aEP9dk+2tOB/tGr2YFz0ABAACIrJ8FKbrzrtVPg9v3m2TNStrmU0lqCWKKVHjOe+quuGz2Y+Sr+8q0H0wuiMIi9wlJGwxygMKd0q19SNnXpVu1UWuP1ZyEaHidmrnZmWzypWrKMqqN0vlv939xX2EDViTVC8299KhaY0b5b2Sk9VajCmJKp6Z5MKQKeqItCwAAAI7+FaQsnSFHF2ppSF1oVs1Vgh2HbSqYKaeKpHe8ddMds9mMFqlJmU5vpqIFW7mQZcCWoilR9nSzojT9SpxO4W9uiZCGqIFPKr4gwJSs6VwuRWlqpTvQ87ErPx+7w3xy/maQuWzK1/PNvejUMfqtOI2GTCrxNeuK4unGfSLASV6bAgAAAJnrX0FKc5ssXJoFQx7FKzAsq+4wHRg9aWmDb9Qlp8P3zOX+UYqKVze471PLJGi+NdrR7WKbnbs2eR2h7cDIHv44A84643VOzoxsHmSP6hRJDVUtVR2rYzclikQXtgNpE9td73VOV3lldt5XI7eFN/fSBe9ZdwSCz+icIGCR75gqXn2/GowhSrCUMR1Uphu4QXagF8eurGEK6TAfRhy3nGfejQBvP/vmE+67aPU/imCjYCo9aPU/SevU2/SqVUNy723VwdoSPYIYHdmHYYkBAAAi6n/PSbEK/9wMZTPdLwIV+xklKoDxFVJDn5PChdnkz9ZQ7GdEiEJcyDMu/M+x4NG0NlGxWHfigLM+tR7vuSlK+DNWlMCzMQKjXKWj94+H7037vuB+MnNfA3nK7Hx1ml7pSR8j/ame+xH4DALrDI7KZq+P071/ukgvDx8d2PdUn2l4PijW80ECwaj1f0HmmZ0GvT+dIcdRNFGOW+/zCjtewz+nYL5KcZbNS84zT/Skxn1QVMf4sOekCCIAefauqTTkSCMt+JnqpxK2nsMNG+iht/QEAAAApNUvH+YIvSe0wA15SwUpwcBJyjpQAgAAAMjMgBiCGADC6OGDjWaJAAAAAPkAQQrAgMTNwdRIeOZDGAEAAADyAZp79Ueh/QNChPbByQ6ae+We028ktaj9P4z+NOn6L6G5FwAAAPQSBCkAAAAAAJBX0NwLAAAAAADySuyaFAAAAAAAgO6EmhQAAAAAAMgrCFIAAAAAACCvIEgBAAAAAIC8kmGQ8j69+soRauHX99/X8wAAAAAAALKXZcd5DlZaKXGomMq+fJmeBwAAAAAAkLksm3tdRhv/5WNEo39PNXoOAAAAAABANnLTJ6Xg95T2gdgAAAAAAAARoOM8AAAAAADkFQQpAAAAAACQV7IOUur+Y5D+CwAAAAAAIHvZ16Qc+kPqok6qWvmfegYAAAAAAEDmsg9Stg2hqTeV0tbRx+VzU/YhWAEAAAAAgCxk+ZwUYd5F2vfXHdT2Qind8EM9DwAAAAAAIENZ16TUXPMuFVAh7UaAAgAAAAAAOYDRvQAAAAAAIK8gSAEAAAAAgLyCIAUAAAAAAPIKghQAAAAAAMgrWQYp79Oiz7xLdGgwPaLnAAAAAAAAZCPDIOV9evWVI9TySislukbRN798mZ4PAAAAAACQneyfkwIAAAAAAJAzRP8fYyZc+xmnSwEAAAAASUVORK5CYII=;" vertex="1" parent="1">
          <mxGeometry x="-50" y="290" width="480" height="104.43" as="geometry" />
        </mxCell>
        <mxCell id="q004lrZ0ON4sxlRlZ2fh-9" style="edgeStyle=orthogonalEdgeStyle;rounded=0;orthogonalLoop=1;jettySize=auto;html=1;exitX=0.5;exitY=1;exitDx=0;exitDy=0;entryX=0.457;entryY=0.006;entryDx=0;entryDy=0;entryPerimeter=0;" edge="1" parent="1" source="q004lrZ0ON4sxlRlZ2fh-2" target="q004lrZ0ON4sxlRlZ2fh-8">
          <mxGeometry relative="1" as="geometry" />
        </mxCell>
        <mxCell id="q004lrZ0ON4sxlRlZ2fh-10" value="" style="shape=image;verticalLabelPosition=bottom;labelBackgroundColor=default;verticalAlign=top;aspect=fixed;imageAspect=0;image=data:image/png,iVBORw0KGgoAAAANSUhEUgAAAxMAAADSCAYAAAAxBp3cAAAAAXNSR0IArs4c6QAAAARnQU1BAACxjwv8YQUAAAAJcEhZcwAAEnQAABJ0Ad5mH3gAAEWySURBVHhe7d0PbBxVnifw396dGHbNtB0mccyCx07Si+YSJ8FybmeS8QRywSMsZ4UCGSLIMBdp8UTRACtAt2Mxzml08aKwK4gWGEUZz0rsQED5AwgdVkbbiYDgSW4QkSGE3IjtBBsnG8fOYLvBO0y0q733e+9V1atX1d3V5XZ3O/5+pE6nqstVr6qru9+v3u+9+qOGhob/IAAAAAAAgAL9J/0MAAAAAABQEAQTAAAAAAAQC4IJAAAAAACIBcEEAAAAAADEgmACAAAAAABiQTABAAAAAACxIJgAAAAAAIBYEEwAAAAAAEAsCCYAAAAAACAWBBMAAAAAABALggkAAAAAAIgFwcTV5r4jdMsvB+mWnifFRCfN/5n4v5i+6T71MgCUSVE/m0/STbyuXx6h68TUNY+cMtY9Gzj7f4rmf1tMOsfmZy/RNWqB2Dp/OkaDvxoSjzF6ab2eCQAAMwbBxFWtl74c5+cMfTkkZ0ApfPsl+rPYlUSYnVTl/s8e6dTT+RT3s3nl0qh8nvpdWj4XrtDyF9nQKE3x8/gwXZEzYvrhJP3kW0TH/66BGu9YQPcd1fMBAGDGIJi42ugf5fiVCgCYEUX9bKbpy8/F0+ej06t8zwQdTMuWBvnQrQ8+TjA1Sl/+Ws4oiidXThCdTSCIAAAoIQQTV7krv8uIf4v7gw0A01fUz6YOVH5/qVdNlwsHEtuaaHxvI73/A/VIf5qgm7aFBRSGXw/T78XT9AKtf6f6Bfq/AABQMn/U0NDwH/r/pfM/HqGVHdfThed20Jcb/p6WNOr5NEhn79lNX+gpSS7rLiAW6aMP/vqf9ITnur811yN+lE7+jNJPfqyntLU/oOSDLVSlJ4Pb+y7deKCD/tj622t+vJP+a8tn3rKFlF9Qf5/QU+Fli7JMcXHO8k/opq/qSWFq4G/on3d7lZHregYp+XU94ZOm9A9u1/vJ6RGb6Y+tv+Uc7qXNo95ynBN9Ry2d37uCvmw312uuy6HWOV9PBZcxtnlps1hvUs8nuvyrRjr/kviPW6k5TNdu43Vl/Nv+/Did+dF9BV/VtY+JecyyHy/FLZumjpH3ntOn++n97h/rCaGQYyaX9Y5D+HENvucO/3tvL6eO3eVYld7855nDPh7hy0Upm33+BJeR79U86xyQ58wa+n3gHLKOv3HuBN5DS7Z9LaVc51nB5Q+cZ46w803Tx5Vm/Fj8O7104DytGaujxh99Rc8DAICZVsaWiQTd+KCoiJMIDu75K/H4GV34vJGW/MMP3A54XMFWlXZ+nR99dLmxg1b+7Xf1EooKJLgi7yz3VzTytftp/lq9gCDXJQKJ3/d5y5wdFNs7sNO3XHT5y090M83/h78XQQIZ+/BX9Cl1+LbJ5VfBil7muZNELT+i5I9v1ksU33U9DxG95F09fP9Xaapq/okvZ/qLbuN1+dhPl8X8y7/KUmnIi69QikoZicqMXN/f0PnPk5Q0O11yxUMHCs5205+KZXRHUxOX95Y7RDVGL3dmIEPz7/BfAZ13Xzt9uZe3kxD/P6W2LfaVvtpEiVxXSkOoYIErTc7xaKSLX3vI3Z57vPYel1eJOXhwluOHF0hwhXhQVOI42HJeF8f26yIwCnRAjXjMlp7UrxvL+I6ZroSTqAjr5fh4MS6nV8njirhYbtzZHi9H+a8sZxHlPPOOB4lKv7fsEImAwNymPDf8+/D+D54lajeOhezI6z9/VPnj9mFRx/+G3znrE+/TV9fQUt3R+cruFd58Mc2Vb2e7/KiMQMJ/XM/8rt09FgWVXwcS3nmt/kYGV9kCCQAAuOqVNc2Jr757rQwfU+ZjUbn56td0xeC7tKAlIZZ5gS4fkzOEf6ILfYNEjd8xKuM307VfE0+DH/l+zL746x3G3znrEhX+f9SzhC/+WgQnHBRs8AcnUeUuv/A/OujGr2ZkC4ZXFvED/uRub3rtD6iuUVTo+owWjWO/pE9PZqiqpSNQgS6WL7qtq7kv7RcVUFFBT66zKrOe63pE5e5TsZxxdb1QsrLiXn3vpUyaj1mtu83r2tdQlaicDBmVmC+6udKSpBvszqFWJebKu6dFJT5B1zboGeL/VeOH3f2s+qqovLvbNpeLopOunSeePj3pP8/s4xjFfZvpJnFenN9rVsB+TOdlkLOGaq1Kb75jRr++j/7ZbNEQy1z+NaeLJKnGWde319G8r4rzTCzrXIm/slscG/E8f6k3AtA1j7TTfL7KbKzvyu5nZTB2U3vhIwVFOs/c4+Ff9sru233Tzrnhb1ES+9rtTIug5NtJeeXdrASr8ov9FMFItnM7J9/6fkwTn4qnefXx1lVi13wtIT4npynjO64rYn2Gr1sqjq04/qPu3/6YRjkgzReYN9TK1uCyp2ABAMCMKGsw8fsRfxrPlSd30AduKtEymZoyccJK9fnkd7LC+JVFelpU4r/8nXgKabFwyXUFt8fByaSITehrdbEqBjnLL1y3TEQJn/8zZYxAwnbN6j8TP7SDNGkEOezKyGfi3+vp2litJnE4HSKzuO8IJb8uKnyHzUpr4ewKhboy6lSqn6Sar4vKc/pNo7LIVGfTqq9Z6RX2yC9cqf6BP5Xo8hmjvNPqrKqPD7ceTHP4TVkpC8uVf+mkrNz/8UJ/0JT7mGXhjI7j0BW6MF6eeiclkqLyaQVM7r4XpQIdPM9UJdVf4Q3Kdm4YdMAUzLsPCcAK4DuHZhnZL4NbUqY95KoOpkPl6vfxJN0k06LSNDGNixCRrP+SmsTpm/4AKU4AAKVUsR2wr6m7XvyrUolWHjAevj4Pyhd//Vf0/06KH00OKPRywRShDP3hE/1fm9maUDS6xeR3IzkrsPLKIXG6lbWfZj+RmSBTRswRV4yc8ABVIZgaeNZ/lbnYvl1PfyyeZPqSr2z+nPty4TQmmRrEAYUuW+yhNHMENoGgKQJOwfIds21r/J8T3SJgXp1XrRAZGn/XCVaSdC0fZ2P/nEeuviA55T3PdCU135Cg+tyIcnU7+zK1dG2MVK3ZTAaeusVrqfMexAqGdWuXr+XsSarl/haB4NPh9F2xW+GKbP0UneL7SmwjevaOBrr953o+AACURMUGE+rKPKcIeX0NzIeZrsRUqwC/xn0XRIWskD4Hn/9uGless9EtJnlaPdSILv7+Ht7Dnx5VNFzB48omd8Q08qPTnL4RQqY3WalHM8IZ0cXK23YfvlSe8vByzLlfggp8ij02f6Ej2qi+HFxhM46V7rfh0YGCUalUufRmapEebtQ6L9xHoR3WI51nEVs99Llht9oUZo6OavbS7f5jH7N17ZqFtfJ5/h1OYKjSHsM/l9wPhgMJ7pMTIxWwEEeraIUIIhr3Ej0kgoojP9TzAQCgJCo2mAimM0X1MV3+Sx1QfE1f3f/Hj2TfiJrVdnDxXaoWi0x9/H9zVJJupsTN3HpQOJVi8GeUyJGqVPp0JlEp+PMmquKrhVFSlpz0ppcKqUjqdJmCZUlnqki9dPlHOqCwy5un4vvFGb7CG5Jnfl+L1VIQhUr/oU+9viFh3L4QRqX+/R/YlbxipjNFP8/U5yRfh3h9buTo00O/fpPGxTJmHxAlW/qWnypvXLPj3OXWNRlQBN7jfOVXrRCBQD9rIKFaE+0RzGbU0WvptDiVkiv/oGcAAEApVG4wceyXNDIoKgYd+UZb+i7d6BtBSVj7LaqRudPcIYL9E43JDs3+EZ6u+9sOUcEapBF3CNZB+gP/oN78Lb0+Ho3pR3RjzBSbK0++ozp4P/iIryP1NT9+xCvHP/aJwCe4zExSd8tN0Lw/dyq7ajSdYCpLlPQmu5LnVSQKp1Mpvr65fHfizUocCzvvPGuOvj4mzZvD31OZcpSgm+4z16dzy/MEBUFqW/T1Fm9bPOqOleak3vP8aT5fHD5OU9x6Mc1+ISzqeaY6gvOoSf4Ru6555IgxmpOXZuMvm1hnj3McvfPHHLnpmkceUh28jaDGDmDyDZGan9OnRgRteY5x6fDxtkdB08FnIK0sX/mjBkve57+kgQQAAJRNGe8z0UiX+4LpSjb7/gvS5yfp//3lL70fw8D9I8QPWci6A+uy1yOpe004Y9TL+z2MdIjyknWfiWjlDwtIwu4hYd8nQ8pyT41isCtP/MM/sVRU9Iyx93PdN8FfUXByoxW+eqnu/yCqIE5HYWNYybwVDCc9Rk8qnMbjXEnX28uaYiHodah7BugKDg8pyvtWSFlMIeXKvg7/MWH+Zb1Kl0MetyxDceYup7UtHvFILN/g7r+anfX9DBzHYNlZwcdLiHKeKRGOBwu8B+Z5oenj5gm/B4LveMhRooapVuw3OfvpO4fUYkz+XaD8LOI+lFTwvcxepjzlD/1cMuM9CBx7U8h7VVS4zwQAQDmUJ5gAgJLy+lWEV7zLX+mFiuYEEoHA0wlActy0rmQQTAAAlEPlpjkBQJHoEZPChl+1h5AFCKOHFg4Okxsc6rd8/jMNj+n/AgBAySCYALjq6QpfoJNzJ82/j9NWCu30DXOODjoDndvv4wEaxHOezu2lkh77E6IlGXppvZ4BAAAzDmlOMGdF7XQbp69AJQrtMxG4o3Ruc+2YgSFLn4lKe687fzpGP/nWv4r//Qkd/7sFdN9RNR8AAGYGggkAAAAAAIgFaU4AAAAAABALggkAAAAAAIil5MHEokWL6Nprr9VT07Nx40aaP98eDR8AAAAAAEoBLRMAAAAAABALggkAAAAAAIgFwQQAAAAAAMRS8qFhuc/ExYsX6csvv9Rz4uM+E++88w5dvnxZz5kZzXs/oQ0LjlPvXVtoRM+bTWZ7+QFmxFf/N712+3+j6/Qk0RS9e2QT/eRzPQkAcFXqpPZXH6dV1XpSmDjxBD3bjZuXBuB3IhK0TADAnJb+TTu1vcYP/EAAQC676P6jn9BDPZ16ejZyAok0vbF+Ee3Uj7IHEm376CFxbO/frqcrxef/izbK3wfx+M1ZPRNsCCYAAAAA5oK22yhZzS0RB2hAz5rLOHNjhwhiduzdpedAHAgmAAAAAOaQiQtzPKVpe0oGEU3v76dBPQviQ5+JEHU9H1Dn6oSe0ibtPgd2zmGG3tu1kg6n9KQg+yrQftp5qJ4e6lpDNXr+4KFF9MIePaHZ27TzF+XrS0+LMgxT29HN1Kjnh+U5Riu/Ll9STwjTyZkMbDMt9ntbl54orPwAJaFzYUd+007b/0XPC8ifWxz6eZPM7wROj9hMNaF/O0pvrG/TVwmN5S7cQzs2eR/Q4PeGWtb5LIkPnbEepss+FvwOcveBUwu6mii96zDN7+J1qTKPbNLfDSHfG7kVUv7836Es33eLI9/3mXzd7jsm938NTbhli3DMTFwhMfYxtGxRlonKXpfLee8LKb99/mT5Dct3zNxzyDhvWMHnjsd+LwPHLOI25Xoi/gbn2mb2z7iS/9jan82InxP5ftf6P5OSvb4Ix8wROOdD6GWc4xXcXvG+W26wy23xjkeEY6Y/H2GfVXV89H7IstVSv9wn/V5F+Vz+6XOU+mYd+kyEQMuEhU849ePu5RK+kdYvuvjk0x8kvUzvCaJVXR9Qe5texJHcTDvkB8pZLkONm/zLBba56zjR6seDeZnVa6jzaDtd1uvaeShNNWI5M8cwWvnND5a3XP+CB4Plz4u/VOxtikif9/vVfVSnl5IilB+gkjTvfZBoj3Nee+es+dkc6V7pvS4fT9B7k/yj+lygYhwVb2PHJnI/U4HvDf4x1D+sznbfSCdpw9EUNetFXNZ3UNjnLrmdP5dc7oT4/we6Aia+OKqbqLng74QI5Y/4HaoqcSQqIbrsvNxYu/WdwesS32dc6dXLON+hsVMXIhwz/g7ligtXZJyy7Xy/xbcMl19VBp1l9HdjnHLpipK3PX1FlStlVsUyb/l5Xdb5o45/3Jz1hPxbed44ZePv+xj7yces6X1dbn6I93Ii9JhF3KY8FlxxVOsL+w3Ot03vM66OOVdW3WXFw1dxLeCzmf9zwuz95M+pWJ/x+5r/mKnPiEzn0RX/RlGpl9Py4ZVNnrM62HDWp8pvl0vId54J+b5bBrbpv+Uyi+V9nyfxsAOenMdszwH53Vuz9DZ/3UPsfxPHHumT6nOS2kLP2p8ZmBYEEybxJdAqTrjBQ7lPsrqedhFli4q4EcWOdD8nPyyrNtlfeP6rPSPdh8WXkfhQ3aorI2HbFCf6QfEBqVl9T+DLZ/CQceVoz0n5xVZzY451heqkugXiyflgaQPbglcF89p+D62q5n00t9lFL8gvizXUZv0w5Sw/QDadz1BfX1/WxzMzdAoFPhNZf6w8dT0P0io6TgetK2MFsSqII2+fFj+0CZqvL8Y1bxIVArGMuY2BbVzRSVJroHMoXzTI9blLUM3YYff1mupR47vN22ZB8pQ/6nfoDQsSYl2nacB4D7hiZ1Yw3HWZV8H1dygl24MVoEjyHDP3u9aq7OxpM6Z3UdvqhBVU6u/GGOVqvkVsUBzXlLv+LkrxPoYGfLnK3ym2LdaV3u+rBKvjLyqZYt+ynds5+a7s6rIlW4LBbR72+8vvZT9fEAtbV6Rt+n+f7HORFbTNPAr6bOb5nDhk8OLuZy8NnOH3vZZu0HPyl1+cd04FPbTS7pTBOWef8K1PlT+sflNp3y3OsbE+E9tbVMvIIe/7BooLwYSh7tYmEbGn6bT5oQzopOal4gfOqojzSTwyJp4W1Pu/iK0fQqKzdJkrIwuWyKls2xy5MCr+raU6349E7rJFKz/TZQ292lMY+QNHozTi20chNFCIUjaAEL0PU0dHR9bHw9OotxdGf3ayERWx74kf40HxYx4nvcM1Nuz/e7G+Z8WPvvqBV1fZJs68ZW3D/93imhyli/q/iqpYmBXJwfeNH9nA8jHkLH/079CLY1wxWEOddiunS68rpMzZKmaR5Dlmkb5rdQUm/bZ1cqZHY5RLXwAKFfL9m6v8TgfcMXtkmmAltRC+c0gI/w2LR54HISJtM/AbHE22beZW4Gcz5+fEY/dvUC0lXoU6TKzyy3M2uD0+f05zcBKo31Tad4v3uXcv2AoqEI93HkA0CCYKtoTmc44vV8TdJkL1yJX3l4288kbchOhfl5kPOBO4aZGbB839iD3cXY4viMCXJ8BsIoIDHq7Q/Gxm/5x3Uvv2NVST3h+oDBRVW71MU5DN/b6yPe7r21G5on+HykqTbuXsdJYLuwBiVzAM/gsaxaFaTHJXjOpurBX/qhQV3376ctGj6qXDKXUcvNZedRU5GJRFk70DbnECgPiMlBz9yNVfoTiKtM2yfTaLecwydJkDhzAxA82SEsEFt8p4rccqwJv2BR7ICcFEwdQVBtm8KqLhwKPADmfq6gE3FYasy2w+nAHq6gZvR+V48xdgscfPDl79AoihHGlOHEhwxc/6rIf1QWIyvYnHbjdSd2ZEalimKdh52+5jprc/bQV+h+5pc1+Tx77AFtWZGLVGtZjkrlipq+ScYmPtn34UGnCq4MTMdY/YabRgIS0dJcOVYrFfMpXFO1bywteMKeI2y/LZLOExK0bLQgkMvM+Bt051kq0tyIqYaQgmDKFNpDo31pMlnSkq3cTsNP0Vsyk4WvnD9NLhu3RAUWBLgu9Da8rWxA8QRxnSnFQqS8Q8Wye9KW9/JZNO0SlYlpSJWSP+dyi3qMqAwv1bnZoTktseJRVJLVM49V2bpKZcnZVjpTNl4+WyT7tymnqL0uL8abzFDsiypZ/5RT1mWVNL/vtP6YC8CPAM/aWe5dJpNnGvIsdKZylom/k+e2X4bE7zmPnI9GR/ipCSLX2riHQgVpSWRNm3Te2HPCditt5BdAgmTPqD5HUyEhF/1xrx5eSP8AcOHaeJsFEj8tJpEJNGJzp90q/qChmFpVARyy/n2znIWfNo83DKv91cn1g/p2mlvY5XALONqjCaP6xq5LJgmlOU9CZdyXCb3nldcVMfdMpLcvOsvRNvtO9QPkb296IelcVIa1KDWiRpg7kuHdyZN+ZSrQnehQ8etSZ2KojuiB8YeWd7yhvJRqdbBEfniaOYlVTv/PGPPMUta/7gOfYxE8eBPydhFdzbWpdSlfzfElppn74yAPMHOmqEwultM6eCtun0N8zWgb4Mn83pHLMA1Ym9ZvWDvv1r3rtZXt3vN/pCFJ8+x0MGnimcusjA2RYbkuh4XQoIJny66AVnSDXZjKyGMT14Rr/sEF9WzzpD/Bk5ivwIDKtn5vo6QyH6mvG5VYCvtoX0myg4WIlYfl5OVHq+Z25LDwVndpyKRrdqkLmfeli8ik+3AMhhT5tMFeAfJHVeP07zU/rKuEFVwsR/Qr4PvAoFf07Ed4b7ffA4Jc+Izwj3B4iDU3/EZ10Of+rbZjEqriUQ6TuUj9lJavK9Hvbdwp0+rXWFfJ9xWucbaa8Pg7zvjR7qs3DO97a3Pvm45aQvoFR909SQq+4y/MjaoTwbsb095ne7+YjxnvP5I849c3hQNby3P7W2kGPmG2pUD4cbFly/1X+GpuT/ztIH9s8NnxdytCtvP1vHnsiashN1mzkVuM2BbWqYU/M99QUOpf5sFlj+fPg9t89ZNexyIa2ucejvSKsPaaBOFZHqiC2EtlRxapizDQ6UBOP4xd3mXIab1s0geS8H+4Y/AFAZIt20DqACmP13fIGU08LF/e5murKXhS5bzpugFVs5tgmziz5H6ETwBnax/SluWpcNWiYAAAAqWbJW9lOwh0Llq7k5hyoGmKOcPlMzm5oFDgQTAAAAlSwkL17S/QTQwRTAID4X3GeksAExYDqQ5jSDZm2ak9OkriezmpFhCQFKRKc5XacniabQfB0G3wczRv5GBDr023h42ZV0mMLfh8BduEsNaU5QIcwBAor2ucDvRCQIJgAAAAAAIBakOQEAAAAAQCwIJgAAAAAAIBYEEwAAAAAAEAuCCQAAAAAAiAXBBAAAAAAAxIJgAgDmoHp66tF76bVHW2mrmFq7rkP8X0zfXa9eDrO8VS3zwDJaq2dBZXDevxfX8bCQznvbQd0L1esAADBzEEwAwJx37PKkfJ76TD3D9Gy9u5xB1ySNZ9Tz+UtyBgAAzCAEEwAwB+kKZ2aczqkZ+X3YTxuffpk2/uIjOqZnwUxzWhm8x1PL9UsGJxi8dFlGEQAAUEIIJgAARsdpSjyhMlpJOJBoJUqJAI6DOPHYPZChxW3hAYUnQ+fH+amAQBEAAGLDHbB9dtH9RzcTHVpEqRu927ITpemN9W00oKckfTv/Gj3JP2Dv7VpJh1N6cnuKdmwiemPXKLXK5XgdB6ju1cdpVbV4Pb2fdm7rUssK5m3g2cSJJ+jZ7l49BQAlt3AZvbhlBVXpSddQP218ZVhPaIFlM3RyXx/1WGk2nP5zZ4OeMFnrtJebGuij779pBzqqsr1YTxEN0+tP99PzesrFfT3ajL4gdvnl69WyvOdbze2GrC+wn8Yy2Y6XI3OKdputOlmXDz92it7nsPcAAADKAsGEjwomGvm/bmW/k9o5AKDj1HvXFhrh13i5V+sp5U4TNe/9hDYkjYBCBhO1NDE5Sv13naQmsd6aSVEZOPMcHaQHReAw6gYo6m+NgEUHKoSAAqCCJKj7gQ5qGbcrsqKC+0CCXjcqyioY8FeK1Tyj8q0r+XagEFhOzuugm/qNCrauiJPxt2F/xx2TH2kmoxwhlXEz2HDn630lIwAI2aac15qh71sVe1mWeVbwYAqsS28vERLA+CCYAACoNEhzCjMpAge31aCXBs6IH7vqWrpBzyHqoheMQIINHDpOE+IHMXlrp57DEiJ4OOC2aNTQaTroBge1VNcmnkTg0JokGjxktHykttDBExmqWX0PiXoAAHQ+Q319fVkfz5gfu5IbpsesSvPz/adoSnz+v7HUaW2sp+UN3MJwyqsof3iKToqvlqol9UZH5QTdNE88DQ35KtTPv+K/Ur+1dQVVZU7Rz40g5PlX+umc2M7tckQjVk93NifENt8x/laUNSUq4Q0rAiMdcVDjVdAzdOysWHdintfyUTuPqsT83/L3oePSR4FAIoq1SxvFuobpiFv+DPX8htcjjlOuFKaFCeJio6M8AEDlQDARYuLMW75AIRLxAz2h/+vJUPpto2VhbDiw3rpbm2QK1Ok9eoY2cmFU/KsDDoC5rvdh6ujoyPp4uNIa8C5lyKj7u5XgUOOi4q7/y98ZMt+/oTXHMLU6MDk7bF31V53Kq67nPEpBLLTYrvwz2T8kQfNq9bRm9xc59qYILsxWAv13LVumP+Tq4uu9lE6/DI3zV1+oBHX/BadFhewTAACUDYKJmLiPw46jnxgPnR5VoBsW8I9qkjb41iUem5JqAQCoeO59KtyH2ZdBuPQRHRkSFf3mFfK+FtLyFdQiPv7nPvZf2X/+FdXRWAYUen3q/gmaDkyqmu1tcpqQWoStnc9BBVf+zWXEI1e/hly4FUIEF+d861T36SiUarkxW1FEoPBNETxlBumYLwpzOGlQ4nilsvWnAACAckAwEYPTWXrw0CLaud557KdB/XohLo7xFTbuL2Guy3kYHboB5rIKTnNS/RISopLrjTrEV/T9Iwnp9CVOPXIq9W318m8e+1Au4KNaBXg9fSoVSgQObkChWz1kWpK7PeOh047UcKncbyNkGfEI225+w/SYsw5Ol5L7EyOgkClTZkBk9c+wcJ8RDiR4n+OVGwAAZgqCiYJ1UjPnQU8ep5SVmhQH0pkAIqjYNKcErV0ivg8yp+j1XJVc2QoRrNjnrxhnqOcXOqBw0pfsdKZssqQzFQ3fd0MGFNV0k5X2dO4zUUCzv4WPboXgTtTGsch2/w7VsVwFEsERrQAAoNwQTBSsl0bGxFN1EzU7AQCPvhQzzYn2HKD3JhO0qiuFztYAs47u45BopLVOhZpHKrLTnCJX7HlkKOvO0Qvr6Rt8Vd7tdKw7Kze0+tOfbDq1anHb9Ps4MG6Bse/vsPVm7tcRvNO0ahUx05hM+pjNE4GYmpEVAgkAgMqHoWF91NCwNdaQrCqtyRvK1R0u1r0wyGlKevhX52/10LBqqFg95Kweblatj3z3pVDDw6r/u6x7UQBAOem8/cDQsF4+v8LDmw7RchFQLDQqwU46VECE+y+EpkOFLMcVdfseDaHbNbeph4bNlnJlcir3LrvshsB2fcvqIV7l//3ccoTunydKeQEAYOYhmAAAiCRbMJGf2a/CVwF2Ksxz6r4JOpAICURUsBIMiAAAoHIhzQkAIIpAulF0aijUYfrQvpJuDyE7Fzj3iggMbav7WgAAwKyCYAIAIMTada2+vgbyRnG+G61FpyrJwRuybb1bpfrYw8Ne1XQA5b9Zn7BwGf2Q06KyDg8LAACVCGlOAAChwvpCGDdxK1B4n4nprXP2Cu8zgY7WAACzD4IJAAAAAACIBWlOAAAAAAAQC4IJAAAAAACIBcEEAAAAAADEgmACAAAAAABiQTABAAAAAACxIJgAAAAAAIBYMDQsAMxBzn0O1H0ezjn3gBjqp42vXJ03kNt69710Z4OeYFfxvoabe+85AEApoGUCAOa8Y5cn5fPUZ+rZxJXw1x5Y5r9b8yyjAokMndz3Mm18Wj/meAU613sOAADRIZgAgDloksb5RsuZcTqnZlzF6mk5t0gMnaKeS2rOVWfhMnrxURH0uY8O6l6oX3PNpfccAKB0EEwAAIyO05R4unSZa5tXp6v2CjwHElsa6bdGq8vrQwlq2RIWUBjmwHsOAFAK6DPh00ntrz5Oq8b2085D9fRQ1xqq0a9MnHiCnu3u1VNML1utJylD7+1aSYdTetLRts+3HqI0vbG+jQb0lKN57ye0IaknBHt7dT0fUOfqUetvd9H9RzdTjbtsIeVn6u8b9VR42aIsE1HgWDi8Y+ft5wGqM4/v5HHqvWsLjehJVpxjpqbp0CJK3cjLJ9RiMfdTlomCx39QrP+FPXpCs8tPafF327rU/+WxaqL0rsM0v4uPvzpGI5v03wSORxHfJ9AV1BVUpScDMqdo9y8+omN6kihB3Q90UItz+oj36+S+PqMlQL8+3k8b+xO+dU8N9NH333QqtCqvfyHPu7yCXmur1/OJzqVepsc+1BNseavvddJ9AZ7XUx5jne52bE5/AoddfqK1so/BpNjGKbrJ3Ff3WKh9/MbZPjpyfYfsnyH3zd0Pe535tynZ+xmlj4N+/yjnPgMAQDGgZSJMcjPtkBW5RbRzvXgcSlPN6sfp/u36dVlx05V2fl08ek8Qrer6gNrb9CJMV55JVFyd5XbuGqXWvbv0AozXJSqIC0Tl0F3mOJHY3g7fcgXIW35he4p2cOWTK7DOdtefpCZzm1x+XfF2lnkjnaQNR1PUrBeJLHAsnqD35IVSrvTaQRhv43FKnnGW3U+D1Wuo0y1b8Y9Zo6ikdy49rdfHZRNleHUf1enXCyKPfy3167L1nsiI9fvPDQ50mt7XZdfln+C/s8qf3N5Ol3dxeRLi/x/oQCVNVN1Ezc76ivk+gXLpI/q+e5VbTHOFWU/Lhy+Q4EqxDhT067tFFBd6ZbxBVIzNq+ipYapq7qCnluvXNZ73mnh/X3fXl6HFbcb6uLJ885C7vY1P99HJTD3dKSrnW+UCXLF3Un5UhV2uMywNiCvrOthw1qfKf2+gXLyvd4q/5YBBLdtP5xIr6JG7jcr+ku/Q7Z/1yTJXif+/KPdDLCfK9I2lTgSiAwkODNx9OEXz/sLfN4UDmNfaqo2+HmI9fAzN7QEAQFkhmAhlVXD3nKRB8VRzY6ecrOtpp0ZexrmKLIx0PycrfKs2GZXBZC3VUIbSbxstAqkt9Kzxd+66zKvMYpmDogJKyXZ/cBJZ7vLLFoy2pP9KuNRFLxjTzZvWUM3kcTpoXO0f2CYq9qKy39rjrCuaulubxLFIU7+7rl5RPlEpFutqMoMcja/ke60MXXSaF11QLyv3M3LMfFf6ddnMCntBuBXBaxUYefs0TYiK1HyjFWKke6W/pUKUv18ejhYjAEhQzdhh932sqR41zjlvfcV8nypW5zPU19eX9fFMGXdz7boVaoQg42r5sTffEZX7BLW02pVebj0wrr5/OCTz9xfOd5s0FBm8eK0Mx84M0pR4z+fV6hkc7Piuzmeo5zc8XU/LZQAgpn9hVMDFHG4l8CruThlE0PFNUUZRqTev4KvyEy3+ZrDjObeQeMsO8y4QzUu4y1UlJumI83oiQZdS3n5UXa+bGhcmiGOZcx+b+zBMj1lB2p3NCVHud4zWCrGMCMCoYUXuFKbaebLlBylMAAAzD8FEmMlRuqj/q4hK9nqncttJzXx1LX3SSiHppZEx8aQrvFJ6VFYiAy0WLr2uwPbCK6CR5Sy/0HYbJcVv+uD7ZiBh20VNYtsTZ97ypRYRnSUeBKVmwRI9Hc0NC6zKkitDl7kS7ROcN7BtEe2Ulf2ZOWaB/dTvXbzjf5oGfC0t0VwcC1Z8fO9RyD4X+32qWL0PU0dHR9bHw14cVWKiEr1EnI9DQ1Z6UYbOj4sno5ItBTr/isqxqNwHUnHGM0alWtAtJb40J5vuA1CQhfX0DVH8YH8Ksf2zokyJeUYaEsvQ+Kj+r/b8KyI4MYMA37EILi9dyhDHB4vbwlo/tOUNYtsZ+u0Z69jI/TQCq4B6ekqmRYlAJ9fxAgCAokAwUbAlNJ8vrnFKytFPfA9f/jvjVghO0RE/fKu6nOVCUk/Ghq2KoMdrTSgi3WISrMQbxI8x5/tzepR/P81+ItENHDouKufmlXLdOhKz4l3yY1Z0KlXLPLZef40CFPl9gkJVc7yg0pfcFCL18N3TYQbIIWvNbebq45FH9iv41XRTrhaA2DiI4tQsFVCoffCnha2VX7TckdrYx7z76fTD4P4XYf1HAACg2BBMFExd8ZUpQjo/3fcwU28k1SogX+Ncd9kfIHou+8SFGbjkGuWqe2pYLKM6NQf2kR++9KgIZABjVnpFZZeCnaqLYUaOWVHpztKcWmUcU+5bUbBiv0+VqmLTnPRwo77cf+PhS9spntD7Ruw7VXjLRF6TdN7uEF00RiqWLLt/BCZ1HwhrH41HsJWG+4mo/iHnUiEduQEAYEYgmChYSDpTVHvadEBRS3Uy7amXBrgJ35cnrzh9DE5bIwD5bG8xRu8pgK6ANt6Sq7NyMdNkjD4aZkU3ViBRmmMWaV1x6TIMpooRSF1l6UzZlDHN6dxn4nwLpPs4sqQzzagi3jfi0jD9Vuze4pvtvh3Z0rdmCKdx6YDCTV/Km85k0qNliSIHRr0CAIAZhWAiBpmy4xtdKByP2OMbQUlovoWbA0ZpRKf2jHQflh1lN1ijKH1vdYImThzwOvFe4MRjo7Myj8a0KVfTQi5dlJKdlTfTQ74OurvofrccuhNyYJk4phGAhZjxYxayrqKSLUP+YI6HiY2V5lTU9wnCqCvk9XT7uvD35/l+UQm2RzSaUbo1pKFBj9wk8IhMsdKcdMfthlZf34W1674jKuYZOtlvdpAuIlHeF63juXZpoyi/0cdCBBhHhjgNKmRULB8EEgAA5YT7TPjo+zRESr/RqSp6ymHfTyBwL4HA/QFYcF1h9yVQ901wfoB5xCZ1LwYeQtXpHB69/EKgcs3rtO5NoId09d8bIss9NXIKP17M3Fe1jxRh/cU6ZtHex6jk+81D1prHXx/DCXOd1rHnNKWD9KAoq74vhu9vrPdV/62vjEV7nyCMuseCUfkN3GfCvmeC4lVudYWX7L+zGUOm5ryXgrU9Ls//IfqhCCguBSrUatmc95mIcM8KdQwo/F4Qkt5HHiJXlN2/fHC/Asc0ZJssuJxgHv9A2U2cJoWUJwCAmYRgAkpAV9hDAikVbJWz0qvK5t3EDgAAAACiQpoTzDw94lBw+NLw4VABAAAAYHZAMAEzT3f4rll6m7/PhO6bEHt4WAAAAAAoK6Q5QWz+/gjZqdz+8L4J3FegvOlF+dOcAv1eQqF/AgAAAMw9CCYAAAAAACAWpDkBAAAAAEAsCCYAAAAAACCWsqQ5ffbZZ3TlyhU9J7477riD3n33Xbk+AAAAAAAoLbRMAAAAAABALGVrmZicnNRz4kMHbAAAAACA8kHLBAAAAAAAxIJgwsL3FNhx1Hvcv12/MMs4+/FQT6eeAwCeenrq0XvptUdbaauYWruuQ/xfTN9dr16GWcV5/15cx/e9cd7bDupeqF4HAICZg2DCMrBtEe1cLx67jsu7NlcWvsEaAgSAYjt2WaVdTn02/fTLYth6t6gMP7CM1uppKMQkjWfU8/lLcgYAAMwgBBNXKScoKu/dpQEqla5wZsbpnJrht7xVXul+armetsyOyn6Cuh/gK/Qhj6ssUHGCwUuXZRQBAAAlhGACAGB0nKbEk1sZ1dM5iWjkmP5vRcucot1Pv0wbzccvPpodZY8lQ+fH+SlLoAgAAEWF0ZyyadtHD3WtoYlDi+iFPXqeD6ccbaZGPcU/YO/tWkmHU3rSUNfzAXWu5lxeZeLEE1aLQSe1v/o4rarWk4K5jP33NnNZ7iuxISn/Kw1mLX9wWbtc8nXaTzsP1ctjUaPn51onwFVh4TJ6ccsKupR6mR77UM8zcMvEndRPG18Z1nO4FaCDWtyPaYZO7uujHivNhnP7H2k2PstDxjr0NqvUVBAHBQUFAbpMlPvvVJkm6fWn++l5PU/1O2ilhQN99P03VYDlLXeKbjL3NaRc8vg06AlhylgPk+taMij+LkN3iu0s1vPt5SRuJWoz+rKYxwwAAMoOLRNxbE/RDhFI1IjKt+xfIR69J4hWddkdtjlI+EQEAiQCDd0XQzwO0j3U3qYXEZr3Pki0x3t956E01ax+3O0bMdK9Ur+2nwbFNFf63WXFwwwAovX5UH0vNiw4Tr3OesTyJLa5Y+8uvYyW3Ew7umqpXy/XeyJDjZs+8JUf4KpzKUMcByycnz2I93DFW1Sux0UlV1/53z1A1LLF3wFYVcZJBBleC8Huz1Z4qVSXPqLv6/mvD4lpu0WhIloT6kXlv4O+cbZPl6ufziVW0CNux3XV+fnOeUbZ950SX3Idwc7t/HcikCARsMnlUsNUJZYzU8v4mL3WVm0cM7G9BhFcoKM8AEDFQDBRMBEgtCWJ0vt9lfiR7ufovUmixrZ9VKfn0fZ7aFV1sMVipLvNNz2wzWrR2HNArqtm6W3euoqorqedGilNb9y1hUb0PEptoYMiUKBkuxUocPnbSNSNpJG3T4sgJUHzjRYNgBnX+Qz19fVlfTwz02MSyD4UauQnvuJ/0zyvs/badStoMQ3T68bV8mNvvkMnMwlqafUqvYuvF4FJZpCOGa0Vx97sC235qGTnROXfaz0Ypg858JmXkH0w3GNhBj4iSPr5gFi+YUVgdCVel7v/H54Sx0wcp5u9wOTO5gRNDbxjtPAM02Mi6AhbFwAAlAeCiUK13UbJaqKJsbN6hqOXBs6IX8LqWrpBz2m+RdS4J0/TQEjqU269NDKm/1t0ndS8VFRqJkfpop7jCA0UYpUfoMh6H6aOjo6sj4e9uL5InBGBlK2ygltPywMdskUleon4PA0NGSlCTOft60o2O/eZWCFfjS9152fZAmB1wI59ZT9D46P6v9rzr7ysW030sQjpq3DszCBNidfn1eoZkghEfIGUdcyWN4jAJEO/5e9Vk+zPYq8LAADKBcFETBMXstVeaqlOXtnvpLoF4mls2Lv6nw33z9D3tXAeZl+GGZGjXDU3YuhZAFZ1PXdkEkFEwzCdHMgYV82dztrVXPcl4tQbq8Ju9hlg3ArBqTy+yn0p0nXCOmDPZJ+DHB3To6WNKWvn87FPUMsW/3F9LVe/EgAAKDkEE0U3SiPySr5uXVhQnztVSXf0rknvd/tA8OONtH69DLIHSgBlUvI0J32VnPEV8qEh6uGr6w0NtNUJICTdgsGdgu0KOz/sfg4fesvJfhFzLP+/kKFb1XCv3JHdOqb6MdvSwwAArlYIJgqVeovS3DfiFqujspM+lD7p9i+4OCZ+OKubqDlHZ+W6W5uoRvxgvneoS8/J5Szx72vNgiV6Og6djpVsoWY9x6HKkqbTGKkJKk3J05w0ETV031xP5z4eFjXhYfptxk51CqYzRcXpQTKgCPlblRI1zx3lqORkilGhMnTsrCi3DLj81i5tpKpAWpONW4CIps4OqwAM6UwAALMCgomC9dLhVFqOcmSO3FTX86DqbG0EBSPdh2lQ/Biu6kr5Ku51PSm3k/PIBU5ATlDyVufSqhoBKjzNSbd2BDpJF0aVK0kbzJGb2vbR91YnaOLEATcYAoBG+kaDUwlWleXF31xBC8X/nb4Dz/efoinfiEZheJhWpwO3Q1Wew9KC1FX5erp9XfS0oLicbblBkj0UawGOvXmKzol13Wkei4XL6IeyI/Upq1+J39a7eYjYYTridO6+9BEdEcHW4jb/qFgAAFBZcJ8JH/veEaY0vbHeG9VIDg+7yazxW6+7ct9Dgtn3keD7OJy+RQ/dao64JOVaXwHlD1nWvn+EvM+EXYa8998AuDqooVzF59K8j4J7Lwj7PhLqvgz21XzfaEUhy4TeV0Fzt++Ie5+JsHjEWpd/W8PuvSR4CFj/fSZ4aNvg/TP8gvvpPw4h+8ay7F8hywIAQOkhmAAAgJJSAYJ9ozwAAJiNkOYEAAAAAACxIJgAAAAAAIBYEEwAAAAAAEAsCCYAAKCk5A380F8CAOCqULYO2FeuXNFz4rvjjjvo3XfflesDAAAAAIDSQssEAAAAAADEUpaWiYsXL9KXX36p58SHoWEBAAAAAMoHLRMAAAAAABALggkAAAAAAIgFwQQAAAAAAMSCYAJKq20fPXT0E9pxNEXNehZA6dXTU4/eS6892kpbxdTadR3i/2L67nr18my0vFXsQwd1L9TTpRCyTedYvrguIaac41zicgEAQMkgmJjDmveKSv2r+6hOT09HXc8HCBBg1jp2eVI+T32mngunKs2qAg2eSRrPqOfzl+QMAAC4yiCYgNJKbaFn1y+inevbaEDPAig9XcnNjNM5NSOLBHU/wFfWvQcChtycwOzSZRlFAADAVQ7BBADA6DhNiSd/BZhbGzqohU7R7qdfpo368XP6Dj21XC8CeWTo/Dg/5QvaAABgtsJ9JkJw+s+GpJ5g6f20c1uXnjBsT9GOTcaCWZbjFKDO1d7VzIkTT9Cz3b16SrG3aS+j1jFKb/iu6O+i+49uphp3WTVNhxZR6kZzm2nv77jPQtcaqpHzQ0wep967ttCInsxNba9RTwXl2G7O7djrNdYjGft94R7fezAo9v2FPXoCYBo49/+RZqKT+/qoJ0uKjlome0vF1EAfff9NL0DZeve9dGeDnmBD/bTxlWE9ISxcRi9uaaTfim2ebzWWzYiA5hcf0TE9KcllV1CVnlQygfLm3Sb3e2irln/n2yYN0+tP99PzekqKuE0AAJg7EExYuNLedmGlVyF1KsFWoOBU/n2VVxFc3E9tRmW2k9pffZxWVWfovV0r6XBKza3rSVHz2216Wleczcp1yDYLCSZkJdz9W10GClbe5T4sKCR4yC68fOFyblfvOxnBlDrWZkBhBhvefFUG8h1rgLicQOFc6mV67EM9MytuxWilhVbwYOL13Xm5z1uXUzE3K/dGZd0LRNS6F5vLyQCg3l82IyhwKvaRtqnXJbnzOb1Lt8o4QUzEbQIAwNyCNCfLSLcRSLDUFupPi+dki9e5WFR4W+1Agu0xAwlh+z2BQIKNdDuBBFeA20WlWFSIzYq12ObBE6ISkWyn9jY9rxAcmLiBTy8NnBHrqq6lG/ScSta8SQRRovwHjVaZgW37aZCS1NrTqedovJ9G8DLy9mmaEJWg+UYLD1wlOp+hvr6+rI9nrFOjGI69eUqm5ixu474SatSn6Tj2plGpZ5c+oiND4rmhIbhuUan3gpJh+pCXm5egtXJaVPS/KSr/Yhnf+kIUsk0OXrwWiwwdOyu2n5hHi+V09G0CAMDcgmAigotjzo+6UndrE9WIAOC0GTiEaL5F1GonT9NA1qvkndS8NCGWGaWLeo5jOhXjiTNvTbuloTx2UZPY32D5zxL36axZsERPa2PD/uV0525fQAdXh96HqaOjI+vjYS/2LKJheuzpl2n3AH/+6+lO3QG7mP0lzn3m/25xnPvYqdSHWFhP3xBfGzmXySHbNu0O0xyIbHTSnKa5TQAAuHohmAjgFBq+D4L3MPs7sBsWhAcAfp1Ut0A82RXeMDmWqblxBi65Vqq2etmnomb1477jv+Mop4qpRQBKTVWqufN1v9dSEet+FM49F7xHrv4WxVGObQIAwFyCYMLH6L8ghy9Vj15OOTLIloq8aUO9NDImnhbUT+s+DhMXZuSSa2VKDdOEeOLO586x9z1COrfDHFGGNKcg1VLxukwTWlHgTdh0vwfuSK1HheKHavWYKeXYJgAAzDUIJkzbW2Sn3sFU7g7JIxdGxb9JatquprNRQUcTNWft96D7M5j9MbRIqVS6vHFFC4qiUcekluri9PFwZUlnAihLmlMh1H0rqq7P0oS2vEH2PTj3G2tEpjguZYj7Oi+cb7Yw6D4NpnJsEwAA5hwEE6b0qLwy3njLLjUt8EhCdpoT7TlA74lKb+OmD/wdpHk0JyPAGOk+TIPiB3dVl//O0Dyak/N3apkkbdjrbZM7eH9PbHPixAGvc7EdwNjD0sbgrDPQsTkOeezEvm4y9qNgvXQ4lRZF2kwPFaNMANOw9e6OYOvDwmV0Ow+dOnTKGr1I308hW4uFvo/F4pu9yjcP2Rov5Uh1yK5qXuF2ouaytogy8DZc5dgmAADMORga1mZV0jnl5iA9GDrsqTM8rCv0PhPO8LB6UgjeZ8Ic6lQJu1+CGvrUqQjwkKgHqE6sO3nGPzSsN1SskmvYVv86BXOI2kIFAhx72NbwSkzgeDhD4+pJxRwVSx+vLPf1ACgOPTyqddpmHyo2uLzvPhPmEKwCv8Y3wHukedK7n4MeuvWStQ15r4h5xjCt1rbkds7Ui79V96hwA50o2wwb8jVUxG0CAMCcgmACAAAAAABiQZoTAAAAAADEgmACAAAAAABiQZoTBIX2WQiBPgsAAAAAcxqCCQAAAAAAiAVpTgAAAAAAEAuCCQAAAAAAiAXBBAAAAAAAxIJgAgAAAAAAYkEwAQAAAAAAsSCYgFmok9pf/YR2HHUeH1B7m34pDA91K5dLUbOeVSma96p9eKinU8+BSrJ2XQe99ui99OK6hJiqp6fE/197tIO6F6rXy8cpSyttFVNOOV+7u169DAAAUCIIJuYwWZF9dR/V6enZo5cO37WIdq4Xj0NpPa+C6ODl/u16etbZRfcjwAkxSeMZ9Xz+kpxRMY5dnpTPU5+pZwAAgFJBMAFXv9QWepYDj/VtNKBnVYqBbSooera7V8+BSuJU0i9dllFETm7rgPtQrQaK05JgPUJbEhLU/YB/OdUyYtKBTWaczqkZAAAAZYFgAgAgkgydH+cnuwKvAoVHmolO7nuZNj7tPIZo+QPLaK1eik0N9Hmvp4aJGlqtgILX1UEtdIp2u+t5mX5O36GnlutFwoyO05R4ihL0AAAAFBPugB2C0382JPUES++nndu69IRhe4p2bDIWzLJcXc8H1Lnau7I4ceKJwJVoe5v2Mmodo/SG7+o6p6Nsphp3WTVNhxZR6kZzm2nv7zgFp2sN1cj5ISaPU+9dW2hET+bH/Rcep1VjYt8P1fvWHdxPvWy1nhSVs/d2raTDKT0pyONAwXUNin16YY+eMMn3oDawHsne15z7lr9swWX8+xg4byzmPtjLZt0//Z426qmiHLMs7PPUpvaV9DEwzimHPt7kHBM53URpUd6RTcb+hr4P9n6GrL9Cbb37XrqzYZhef7qfntfzgjhIaKWFIpj4/ptOhZ9bIETgkPD+lls3VFDSRz0VlkoFAAAQBi0TFq5QNb2v8/H5ses4TSQ30469u/QSClfgOJDgCpu77PstVp686ijcuZpEBdBb7iDdY3QYVvnpGxaICpazHrFNWv14YJtRNYqKW+eCw3p7T9B7k0na4PSNcFN+FtEb3N2AK3bOdvlRUCBh4GMkK456PYfSVCP2wTsevJ866NDb6j1BtKorpPO0ta7eExmxT3k6WYex9zUb2cdBlI3MY/Ec0SZ/f5LmvQ8S7XFeFw+9j07fAidlSZ4zYtp3boiHWbG3lw3FgZIOFp11qGMW0h9DHrNa6neXK/yYjXSv1NvZT4NimoMHZ7v8UEFTrwhk+GAmqckqQ92tTSKQyVD6bTOATMjyymDHWXf1Guo0z215/P37+UZanLMV2GE+YOEyur2BWxxO5Qgk8gi0dCRoXq3+LwAAQIVDMGHhCpXvaq6okPbLulOLV7ERlZ/WZMiV3z1t/unt99Cq6uCV5JHuNne6rqedGvkqrFmJF9s8KCqDlGwvvALNOEBwW0h6aeCMWFd1Ld2g58wMvpJs7Oeek7JCWnOjqmi7+2m03Ix0PycCHVHZ3GQHTf5jNtJ9WKwrQclbZ6ZDcPOmNVQTuFouKs3b/IHVwDarpWLPAVF+sY9Lb5uBTuwiEG0TJ1l6v691Rx0zETCKc9C/TT5m3pX8kbdPiyAlQfNztJTEpt/bxlvM962TmpcmRHkP+48R87XYdVFKntve58k5/geN/RzYxgFNkloL6gR+G/305T7q68vyePmnYokiq51HVeIpTnrR2nXfoRZxyKbODtMxPe/Ym6dkYLG4jftKmH0uAAAAKhOCiQgujvkrCuoKbJpO50khab5F1OQmT9OAXbly6QrY5Chd1HMc06kMTpx5K17rwnQE9qGLXnCvZjsVzZNW2kovjYyJpwX1/opx4JidJe4HW7NgiZ4upl3UJI5xvGOmyz8T2m6jZLUo19hZPcORJTjMeZ4VWxedDgTYqryD7wfT/Ox5IxdGxb+1VCcD5WzHP857/hb99N4O6ujI8rj3p2KJ4lo738h5k6yO1lafiapmr5O208fCS3tiw/TY0y/T7gGeV0936mVz9pcAAAAoIwQTASrtyLuHAacp+fPIb1gQHgD4dVLdAvE0Npy/kppjGefK/uy2hGSdi1NxrGObq49BSbTVyz4GExfM1JwsZDpOacufvVxOZbw8Bg5xepaX6iQD7MnjlMoTYAfo48/pYuZx3cFpZ3Y9vQI5oz15VDDAnaZfH9KzDG4HbO58TQlqaQ2/L8SxN52O2v1eSwXuIQEAABUIwYSP7gRq9SPg/HOTbKnImzaU5ap7gSJVciueusos012M4+o+4vbTKAZRqeM+C3mDNg4kuHOztQ85+2LMqFEaKVlLRIjUW5TmdCuZ6qRanmK17ujjb/fPcB9hAx9kVYY0Jz2K0sL5/gsOeX3Yr4KNhhV5boCngpNoywIAAJQeggnT9hY5msxgKnflVqVpBDug2lTQ0UTNWa8g65QVM11Ei5RKpcsbV7SgqBimGVjlSKGZPp1Ok6ffg9O5+L1DEcoQNUDJxVdZN2VLGSumKClGuiM2n7vy/bE7XmfnT/8rZgpb6dOc6NIw/VZ8jKqW1PvSmaJ4vv+UCESyt04AAADMBggmTOlRWQk0K3A8alNguEzd8TYwWs72lG+UHafj8Kou/6g0dT0p9+/UMknaYI1u8z2xzYkTB7wOtXYAYw9LG4OzzsI6ucYj02LsUXwi6aT27aqDbsEpNJHoSnGgbGK7e71OzupYmZ3A1Uhd4WlOuoK8+p5AkBidU1nf7Dun6noeVJ36owQ1sengL98AALIjtjh3ZYtNSMfrMOK85WPmBezefs7OO25nqOf/iKAgsYIesfpH5HXpIzpitThsvbsj2PqgR4yioVMYLhYAACoO7jNhsyrpnH5xkB4UAYV9jwcVaPgqk6H3meBKZ/Z7Eyj2GPuishVyjwD/fQB49KQDVCfWnTzjrE+tx7vvhBJ+jwolcG+BwKhG+ej942FV8/5dcD+Zua+BY8rs4+qkHOlJH6P8ue6bEHgPAusMjsJlr4/LffoWUV4e1jew77ne0/DjoFj3VwgEjdbrgjxmdhn0/kyEnEfRRDlvvfcr7HwNf5+Cx1UqZNmK5NwzQk9q3EdCdbAOu8+EIAKFF7esoKqhftr4iupHEbaec6mX6bEP9QQAAEAFQTABFSW0YgwVSwUTwQBHmnZAAwAAAJUOaU4AEJMe1tVIxwMAAIC5BcEEAMTAaVBq5DPzZnMAAAAwtyDNCYJC89dDhPYRmR6kORWf068ht6j9E4z+Hvn61yDNCQAA4KqHYAIAAAAAAGJBmhMAAAAAAMSCYAIAAAAAAGIpeZoTAAAAAABcHdAyAQAAAAAAsSCYAAAAAACAWBBMAAAAAABALGUKJv5AR341RIP8+Nkf9DwAAAAAAJhNytwBm4OKEUqeraPGH31FzwMAAAAAgNmgzGlOX6H9//dPiBb8G3XqOQAAAAAAMDtURp+JxL9RUv8XAAAAAABmB3TABgAAAACAWBBMAAAAAABALGUPJnr/5Rr9PwAAAAAAmE3K3zJx9r9Qhiao/af/rmcAAAAAAMBsUP5g4mgVrbijgQ4vOC/vO3EKQQUAAAAAwKxQ5vtMCOun6NT/vEyjrzbQ7T/X8wAAAAAAoOKVvWWi8zv/SgmqoZMIJAAAAAAAZhWM5gQAAAAAALEgmAAAAAAAgFgQTAAAAAAAQCwIJgAAAAAAIJYyBxN/oM3f+leis9fSj/UcAAAAAACYHcoUTPyBjvxqiAZ/NULJzHz6mx99Rc8HAAAAAIDZovz3mQAAAAAAgFkJfSYAAAAAACAWBBMAAAAAABALggkAAAAAAIgFwQQAAAAAAMSCYAIAAAAAAGJBMAEAAAAAALEgmAAAAAAAgFgQTAAAAAAAQCwIJgAAAAAAIBYEEwAAAAAAEMsfLVu27D/0/wEAAAAAACL7o7q6OgQTAAAAAABQMKQ5AQAAAABALAgmAAAAAAAgBqL/D+mm/Mgstby2AAAAAElFTkSuQmCC;" vertex="1" parent="1">
          <mxGeometry x="460" y="290" width="374.76" height="100" as="geometry" />
        </mxCell>
      </root>
    </mxGraphModel>
  </diagram>
</mxfile>
